<svg width="659" height="493" viewBox="0 0 659 493" fill="none" xmlns="http://www.w3.org/2000/svg">
<ellipse cx="336" cy="218" rx="226" ry="217" fill="#CCFBB6"/>
<path fill-rule="evenodd" clip-rule="evenodd" d="M195.16 278.514C198.214 300.449 201.268 322.385 204.322 344.321L206.788 362.035C207.1 364.271 206.805 368.68 207.992 370.681C208.41 371.387 209.512 371.722 210.321 372.138C213.108 373.571 215.895 375.004 218.682 376.437C242.255 388.557 265.828 400.678 289.401 412.798C312.024 424.43 334.648 436.062 357.27 447.694C359.612 448.898 363.398 452.039 365.926 451.211C368.328 450.425 370.783 448.484 372.964 447.261C377.151 444.911 381.337 442.562 385.524 440.212C410.859 425.993 436.192 411.774 461.526 397.556C471.979 391.69 482.431 385.824 492.883 379.957C495.743 378.352 498.603 376.747 501.463 375.142C502.959 374.302 503.153 374.332 503.742 372.907C505.943 367.58 506.963 361.478 508.52 355.951C510.236 349.86 511.953 343.769 513.669 337.678C514.434 334.96 514.075 334.609 512.827 331.986C510.357 326.793 507.887 321.6 505.417 316.408C499.934 304.883 494.452 293.358 488.969 281.832C486.752 277.172 481.412 273.893 477.568 270.465L417.873 217.24C416.357 215.888 414.841 214.537 413.325 213.184C413.075 221.31 411.399 230.045 413.858 237.894C417.893 250.776 421.928 263.657 425.963 276.539C427.914 282.766 429.864 288.992 431.815 295.218C432.177 296.374 434.383 300.962 433.794 301.979C433.467 302.543 430.68 303.114 430.076 303.333C427.484 304.278 424.891 305.223 422.297 306.168C415.073 308.8 407.848 311.432 400.624 314.064C394.126 316.432 387.628 318.799 381.13 321.166C378.926 321.969 376.338 323.456 374.011 323.332C371.929 323.221 369.562 322.234 367.548 321.738C364.007 320.864 360.464 319.99 356.923 319.116C349.966 317.401 343.009 315.685 336.052 313.968C328.225 312.037 321.615 306.367 314.921 302.17C303.416 294.955 291.91 287.74 280.406 280.527C277.772 278.875 277.762 277.932 276.712 274.917C274.354 268.14 271.994 261.363 269.636 254.586C268.376 250.967 266.827 247.334 265.876 243.629C264.307 237.515 263.376 231.186 262.134 225.005C261.759 223.14 261.384 221.274 261.009 219.409C256.191 221.281 251.373 223.154 246.554 225.027C245.856 225.299 242.453 226.108 242.15 226.773C241.958 227.193 242.971 229.101 243.115 229.51C247.111 240.843 251.106 252.174 255.102 263.506C256.359 267.071 257.615 270.635 258.872 274.199C255.869 269.68 252.865 265.16 249.862 260.641C247.503 268.242 245.143 275.843 242.783 283.444C237.206 277.281 231.628 271.118 226.05 264.955C224.12 271.118 222.189 277.281 220.258 283.444C214.252 275.843 208.246 268.242 202.239 260.641C201.525 264.607 200.811 268.574 200.096 272.54C199.881 273.738 199.924 277.173 199.092 278.12C198.406 278.901 196.433 278.514 195.16 278.514Z" fill="#FFE70C"/>
<path fill-rule="evenodd" clip-rule="evenodd" d="M575.459 325.93C575.121 336.256 575.355 349.66 569.454 358.739C568.502 360.204 565.276 364.769 564.915 360.753C564.562 356.811 565.575 352.908 564.572 348.92C564.035 346.786 562.23 342.126 559.144 344.053C557.572 345.035 557.157 347.461 556.542 348.992C555.632 351.257 554.612 353.486 553.654 355.733C550.308 363.58 546.84 372.943 539.401 378.136C540.375 371.37 543.029 364.146 541.245 357.306C540.637 354.975 538.795 350.719 535.624 352.085C532.534 353.415 530.531 359.353 529.073 361.997C524.651 370.013 520.129 377.879 515.151 385.596C512.647 389.477 509.943 393.025 506.666 396.345C504.618 398.422 502.064 401.932 498.835 402.241C498.835 396.323 500.869 390.605 502.725 385.031C504.722 379.038 506.543 372.994 508.503 366.99C510.203 361.781 511.599 356.613 512.731 351.272C513.2 349.063 513.571 346.776 515.537 345.349C517.304 344.067 520.096 343.457 522.067 342.515C527.241 340.039 532.562 337.368 537.369 334.291C539.343 333.027 541.042 331.395 543.108 330.262C545.463 328.971 547.661 327.884 549.84 326.311C559.24 319.521 567.713 311.168 573.423 301.226C574.35 305.22 575.578 309.123 575.713 313.241C575.852 317.463 575.597 321.711 575.459 325.93ZM498.097 373.392C496.594 370.961 494.304 371.957 492.286 373.129C489.154 374.948 486.014 376.753 482.866 378.549C476.461 382.204 470.174 386.05 463.916 389.93C451.177 397.827 437.994 404.29 424.564 410.975C411.583 417.435 399.116 425.122 386.954 432.892C384.031 434.76 381.128 436.671 378.322 438.696C375.83 440.494 373.838 443.018 371.215 444.619C368.484 446.285 366.607 444.933 363.995 443.704C360.728 442.167 357.324 440.879 353.984 439.493C340.509 433.898 326.995 428.091 313.886 421.74C300.857 415.429 288.512 408.157 276.027 400.934C270.082 397.494 264.237 393.836 258.373 390.27C252.131 386.476 245.67 383.633 239.123 380.407C236.226 378.979 233.66 377.041 230.685 375.743C227.557 374.379 224.253 373.4 221.453 371.432C220.197 370.55 219.138 369.495 217.703 368.871C216.524 368.359 215.187 368.272 214.023 367.728C211.656 366.621 210.979 364.375 210.521 362.038C207.572 347.039 206.005 331.624 204.297 316.458C203.337 307.93 202.265 299.434 200.938 290.951C200.339 287.126 201.543 284.163 202.175 280.442C202.912 276.096 203.204 271.66 203.698 267.284C206.03 271.422 208.047 275.765 211.015 279.541C213.202 282.324 216.939 286.27 220.967 286.177C227.227 286.032 226.941 275.749 227.193 271.667C230.045 274.104 230.91 278.075 233.277 280.907C235.438 283.492 238.379 286.699 241.698 287.856C248.685 290.294 248.013 277.872 247.629 274.349C247.435 272.582 246.394 269.787 248.865 270.592C251.142 271.334 253.357 274.41 255.27 275.821C258.577 278.26 262.205 280.287 265.598 282.616C269.807 285.505 274.35 287.593 278.641 290.284C281.326 291.967 284.254 292.345 287.18 293.582C291.467 295.396 295.255 298.099 299.336 300.274C307.417 304.578 316.381 308.437 325.221 311.032C328.081 311.871 331.892 314.238 334.061 311.806C335.397 310.309 336.275 308.023 337.409 306.346C338.843 304.222 340.367 302.154 341.949 300.128C347.572 292.929 353.812 286.131 360.743 280.059C368.806 272.996 377.623 266.639 387.053 261.345C391.105 259.07 408.024 248.874 411.743 256.05C408.687 255.868 406.038 256.938 403.425 258.279C402.787 258.606 399.498 260.856 400.267 258.873C399.312 259.044 398.474 260.237 397.751 260.768C396.5 261.685 394.604 262.744 393.156 263.503C391.724 264.253 389.956 264.437 388.651 265.347C388.175 265.679 387.886 266.218 387.432 266.577L386.129 266.587C385.934 267.278 385.739 267.968 385.544 268.659C384.808 266.399 383.758 269.338 382.528 270.293C381.788 270.866 380.618 271.457 379.747 271.828C379.096 272.105 378.996 271.461 378.364 271.95C377.803 272.385 377.445 273.342 376.841 273.887C376.101 274.554 375.153 275.072 374.327 275.642C372.745 276.732 371.072 277.589 369.47 278.623C367.314 280.015 366.183 282.408 364.09 283.863C363.098 284.552 361.558 284.633 361.022 285.074C359.676 286.182 360.119 287.861 357.609 287.935C357.838 288.285 357.975 288.665 358.022 289.075C357.424 288.976 356.893 288.739 356.427 288.362C356.532 290.76 354.07 291.616 352.594 293.092C351.743 293.942 350.684 295.139 350.084 296.162C349.984 296.334 349.793 297.7 349.752 297.719C349.524 297.823 348.138 296.657 348.269 296.754C347.882 298.969 345.644 301.063 344.664 303.114C344.148 304.194 343.623 305.931 342.606 306.691C342.329 306.897 341.477 306.682 340.774 307.4C340.258 307.926 339.663 308.899 339.453 309.597C339.313 310.064 339.481 311.271 339.28 311.551C338.912 312.062 338.339 311.548 337.763 311.926C336.697 312.625 336.67 313.717 335.111 313.861C336.186 316.362 342.675 317.133 345.034 317.844C351.704 319.855 358.702 321.863 364.938 324.942C366.55 325.738 368.076 326.394 368.362 328.229C368.76 330.782 367.402 334.177 367.142 336.755C366.44 343.719 366.297 350.888 366.444 357.881C366.583 364.505 366.806 371.192 367.129 377.808C367.428 383.942 368.719 389.955 369.416 396.046C369.607 397.718 369.48 405.257 372.481 404.877C374.987 404.56 373.405 399.411 373.358 397.935C373.253 394.668 373.971 391.332 373.941 388.036C373.927 386.452 374.65 385.087 374.72 383.57C374.788 382.072 374.011 380.888 374.244 379.335C374.468 377.845 379.068 369.273 374.65 370.277C374.909 369.052 375.135 367.816 375.477 366.609C375.949 367.016 376.33 367.491 376.617 368.033C377.011 365.4 376.879 362.772 377.123 360.138C377.233 358.944 377.738 357.637 377.565 356.434C377.598 355.936 377.532 355.446 377.367 354.967C377.096 354.691 376.759 354.546 376.359 354.532C376.149 353.873 376.095 353.692 376.468 353.046C376.628 352.607 376.946 352.334 377.422 352.225C378.328 352.122 378.432 351.624 377.732 350.73C378.097 348.964 378.144 347.85 377.881 346.089C377.659 344.609 378.473 341.744 377.644 340.426C376.675 338.886 376.194 340.38 376.014 338.245C375.975 337.793 375.944 336.851 376.134 336.401C376.342 335.91 376.967 336.111 377.047 335.937C377.589 334.75 377.625 332.415 375.706 332.617C375.781 331.77 375.856 330.922 375.931 330.075C377.318 331.604 376.833 330.31 377.619 329.46C378.679 328.315 379.715 328.118 381.229 327.665C385.265 326.459 389.153 324.645 393.097 323.174C401.448 320.057 409.954 317.274 418.06 313.591C435.11 305.843 451.821 297.435 468.975 289.892C467.749 287.714 468.511 287.608 469.407 285.563C470.603 286.358 470.351 285.803 471.202 285.755C471.125 285.072 471.346 284.867 471.866 285.137C472.28 285.259 472.704 285.302 473.139 285.266C474.201 285.44 475.068 286 476.034 286.213C476.35 286.436 476.699 286.604 477.078 286.717C477.419 286.642 477.71 286.481 477.951 286.232C479.513 286.509 480.04 287.636 480.109 289.268C480.12 289.552 479.213 289.843 479.473 290.225C479.927 290.892 481.148 290.733 481.847 290.818C481.694 291.51 481.541 292.203 481.388 292.895C484.455 291.539 483.655 295.781 484.585 297.175C484.844 297.564 485.421 297.253 485.722 297.704C486.113 298.292 485.995 299.124 486.329 299.71C487.084 301.034 487.84 300.873 488.592 302.39C492.524 310.309 497.754 317.687 501.528 325.776C503.324 329.626 504.945 333.542 506.821 337.359C508.547 340.871 509.533 343.857 508.303 347.692C505.449 356.59 502.398 365.65 498.658 374.244C498.471 373.96 498.285 373.676 498.097 373.392ZM299.05 439.807C298.783 440.244 298.515 440.68 298.247 441.117C297.653 437.841 299.237 439.36 299.05 439.807ZM286.464 433.674C285.606 433.428 285.977 432.086 286.004 431.512C286.547 432.16 287.079 432.82 287.531 433.531C287.175 433.579 286.819 433.626 286.464 433.674ZM251.967 421.081C252.868 420.597 253.516 420.25 254.538 419.701C253.5 421.639 253.5 421.639 251.967 421.081ZM197.697 250.401C196.32 253.637 200.518 273.615 196.61 274.267C196.05 272.514 195.979 267.686 193.659 267.109C190.781 266.394 191.065 271.364 190.671 272.901C184.762 268.964 182.137 261.36 179.313 255.333C175.715 247.652 172.883 239.663 170.179 231.66C167.866 224.817 165.954 217.853 163.618 211.021C162.15 206.73 160.567 202.429 159.58 198.006C159.366 197.045 158.522 194.609 159.239 193.696C160.281 192.368 164.031 193.889 165.24 194.238C173.08 196.497 181.214 197.47 189.269 198.782C198.219 200.24 207.149 201.747 216.153 202.877C218.403 203.159 220.654 203.427 222.906 203.687C224.367 203.856 226.579 203.687 227.966 204.314C230.774 205.583 231.372 210.44 232.416 212.959C236.307 222.359 240.887 231.462 244.985 240.777C248.676 249.168 251.474 258.096 256.781 265.736C252.823 264.056 247.808 255.174 243.386 260.293C241.485 262.495 241.965 265.395 242.116 268.03C242.337 271.839 242.405 275.676 242.405 279.491C238.078 278.414 235.171 273.71 232.899 270.378C229.796 265.826 227.841 261.537 226.467 256.319C225.872 254.06 224.294 254.004 222.892 252.652C221.991 251.783 221.538 250.612 220.245 251.876C218.621 253.465 219.701 257.865 219.982 259.741C220.648 264.205 222.833 271.075 220.709 275.269C217.843 280.93 210.162 266.687 209.262 264.629C208.805 263.582 200.633 243.5 197.697 250.401ZM192.331 153.387C192.815 153.458 193.298 153.529 193.782 153.6C193.392 153.929 192.581 155.086 191.918 154.78C192.056 154.316 192.193 153.852 192.331 153.387ZM217.964 148.119C217.813 148.279 217.66 148.438 217.508 148.598C216.814 147.767 217.06 146.556 217.06 145.595C217.977 146.126 218.201 147.187 217.964 148.119ZM220.035 157.337V160.052C218.114 159.255 218.076 158.843 220.035 157.337ZM222.369 160.79C221.023 160.436 220.862 160.15 221.051 158.169C221.609 159.279 221.976 160.011 222.369 160.79ZM230.119 180.9C229.554 182.29 226.256 178.977 226.377 177.985C226.492 177.039 226.999 176.757 227.698 177.365C227.929 177.567 227.586 178.295 227.733 178.547C228.265 179.462 229.338 180.21 230.119 180.9ZM230.155 189.277C229.329 191.253 227.856 188.141 230.015 188.056C230.157 188.453 230.204 188.86 230.155 189.277ZM228.552 186.161C228.232 185.753 227.922 185.339 227.62 184.917C228.732 185.132 229.615 186.684 230.788 185.649C230.649 187.228 229.478 187.271 228.552 186.161ZM156.638 160.496C154.85 158.626 166.512 157.314 167.918 156.993C178.128 154.662 187.767 151.288 197.313 147.148C201.867 145.173 206.397 143.175 210.844 140.986C212.765 140.041 215.397 139.24 217 137.821C218.145 136.808 218.1 136.042 219.588 135.439C220.851 134.928 220.914 135.41 221.492 134.486C221.84 133.931 222.233 131.899 222.03 131.297C221.476 129.656 220.657 130.986 219.506 129.856C218.678 129.04 218.879 126.722 219.105 125.761C219.398 126.219 219.567 126.715 219.612 127.25C220.86 126.661 220.357 124.638 221.722 124.306C223.16 123.957 223.011 125.03 223.386 126.127C224.473 124.599 223.602 123.295 223.014 121.803C226.004 121.267 229.218 120.747 232.182 121.7C234.326 122.388 236.16 124.081 238.424 124.409C240.64 124.728 241.066 123.722 242.7 122.701C244.027 121.872 245.166 122.848 245.848 122.222C245.428 124.336 241.809 124.047 242.254 126.688C242.455 127.877 243.976 128.945 244.669 129.87C245.538 131.031 246.231 132.315 246.823 133.624C249.127 138.713 250.111 144.619 251.078 150.062C253.463 163.496 253.765 177.196 256.008 190.673C257.077 197.093 258.149 203.516 258.704 209.999C258.843 211.619 259.877 215.296 259.031 216.855C258.316 218.171 256.725 218.175 255.329 218.494C252.596 219.116 250.03 219.961 247.409 220.897C245.059 221.736 244.377 222.25 242.868 220.133C241.409 218.085 240.688 215.643 239.644 213.397C238.314 210.535 236.708 207.774 235.166 205.014C238.195 205.014 239.939 203.448 239.858 200.5C239.771 197.235 236.967 196.46 235.811 193.777C234.687 195.175 234.592 195.214 233.791 193.887C232.874 192.369 232.256 189.591 231.695 187.869C232.096 188.279 232.497 188.689 232.898 189.098C233.909 187.766 232.325 185.665 231.796 184.41C230.978 182.473 230.834 180.378 230.059 178.446C229.636 177.391 228.657 176.561 228.416 175.461C228.256 174.724 228.899 174.024 228.746 173.276C228.481 171.974 226.943 170.578 226.465 169.254C225.73 167.218 224.931 165.425 224.018 163.441C222.783 160.756 223.07 157.938 222.845 155.08C222.61 152.117 221.619 149.282 221.269 146.331C221.027 144.293 221.785 141.727 220.174 140.094C219.986 142.808 220.798 142.766 218.136 143.254C215.105 143.809 212.906 145.972 210.04 146.617C209.45 146.751 209.019 144.279 209.25 147.65C207.875 146.678 204.941 147.885 206.036 148.462C205.206 149.312 203.572 148.724 203.299 149.997C200.48 147.372 195.959 156.307 192.601 151.647C192.047 154.805 189.659 156.673 186.453 157.09C184.841 157.3 183.847 157.815 182.416 158.277C182.126 158.371 182.019 158.771 181.676 158.878C181.151 159.042 180.38 158.547 180.001 158.644C179.231 158.84 178.374 159.81 177.299 160.003C176.066 160.224 174.721 160.123 173.487 159.986C171.943 159.815 171.264 159.64 169.753 160.126C168.394 160.565 166.938 161.792 165.677 160.456C163.695 163.739 158.971 162.936 156.638 160.496ZM248.244 120.877C246.745 120.705 247.786 119.47 248.481 119.099C250.367 118.092 249.864 121.063 248.244 120.877ZM165.213 132.659C174.014 120.499 189.068 112.144 202.314 105.114C209.549 101.275 216.934 97.5526 224.53 94.4101C228.307 92.8483 232.128 91.347 235.985 89.9751C238.044 89.2423 240.129 88.576 242.214 87.9129C242.791 87.7298 243.84 87.1677 244.444 87.2226C244.339 87.2127 245.944 87.6306 245.628 87.7619C246.662 87.3311 247.154 86.2075 248.369 85.7582C249.734 85.2529 251.474 85.0439 252.937 84.9983C254.231 84.9576 255.351 85.4698 256.584 85.5099C257.394 85.5357 258.083 85.1672 258.877 85.113C259.283 85.0858 259.247 85.6676 259.491 85.7015C259.597 85.7163 260.679 85.3274 260.689 85.3342C261.083 85.5764 261.431 86.5219 261.787 86.891C262.808 87.9499 264.306 88.6876 265.667 89.2447C267.324 89.9227 271.365 90.6043 269.492 93.1127C270.822 92.9297 271.441 94.0809 269.776 94.3725C268.874 94.5309 268.488 93.7395 267.818 93.1996C266.27 91.9547 262.513 90.1821 260.284 90.2623C259.03 90.3073 258.061 91.2188 256.904 91.5497C255.766 91.8752 255.202 91.3704 254.203 91.4505C253.036 91.5436 252.284 92.4896 251.171 92.6579C250.129 92.8157 249.549 92.1352 248.618 92.1827C247.511 92.2388 246.439 93.1596 245.382 93.4689C243.701 93.9608 242.467 94.296 240.826 95.1114C237.645 96.6923 234.093 97.2926 230.816 98.6534C228.195 99.7412 225.224 100.314 222.799 101.517C220.102 102.854 217.394 104.185 214.753 105.638C212.846 106.688 208.968 107.049 206.864 106.782C206.834 110.491 204.928 107.891 203.007 109.515C203.461 109.899 203.978 110.182 204.553 110.362C202.472 111.158 200.547 112.149 198.53 113.065C196.446 114.011 194.222 114.22 192.852 116.01C191.591 117.66 192.018 116.809 190.136 117.458C189.272 117.757 188.521 118.666 187.899 119.277C186.829 120.327 186.593 121.917 185.982 119.759C185.804 120.022 185.102 121.698 184.966 121.741C184.2 120.963 184.09 121.885 183.662 122.214C183.888 122.931 183.566 123.401 182.697 123.623C182.258 123.936 181.812 124.243 181.362 124.544C179.73 125.628 177.653 126.558 176.504 128.173C175.656 127.694 175.342 126.868 175.858 126.024C174.238 127.454 172.306 128.922 171.867 131.123C171.666 130.937 171.431 130.803 171.165 130.72C170.507 131.145 171.363 132.413 171.78 132.698C173.599 132.021 171.326 132.267 172.548 132.376C172.896 132.406 173.254 132.656 173.638 132.66C174.765 132.675 175.824 132.623 176.941 132.458C179.405 132.095 181.826 131.417 184.211 130.738C186.808 129.999 189.406 129.26 191.946 128.353C194.038 127.606 196.095 126.773 198.151 125.944C198.972 125.612 199.792 125.276 200.615 124.947C202.177 124.322 203.001 123.295 202.782 125.054C204.026 124.857 205.104 123.173 206.059 122.486C207.403 121.52 208.914 120.799 210.506 120.306C211.151 120.107 211.625 119.853 212.292 119.851C212.619 119.85 212.814 120.733 213.02 120.685C214.449 120.353 213.798 119.595 214.44 118.503C215.845 116.116 219.629 114.796 221.953 113.44C223.428 112.579 224.475 111.421 225.836 110.468C226.474 110.022 226.936 109.825 227.604 109.636C228.115 109.491 228.741 110.615 229.073 109.486C227.884 109.02 226.904 108.447 225.761 108.107C224.952 107.866 225.922 107.042 224.64 107.533C224.125 107.73 223.948 108.684 223.759 109.083C222.327 107.859 218.301 109.128 216.602 109.64C216.485 109.676 215.96 109.411 215.713 109.427C214.733 109.489 214.05 110.753 213.404 111.298C211.688 112.746 209.826 113.351 207.713 114.178C208.275 111.235 212.409 110.029 214.821 108.902C218.348 107.254 221.631 105.151 225.493 104.264C228.064 103.673 231.472 103.198 232.583 106.061C233.248 107.778 233.331 112.042 231.082 112.834C230.845 112.033 231.605 111.348 231.834 110.653C229.595 111.471 229.227 114.047 227.526 115.391C226.571 116.146 226.229 116.388 225.767 117.118C225.308 117.843 225.088 118.519 224.013 119.29C222.255 115.715 222.552 120.612 221.661 121.227C222.02 120.979 220.209 121.701 220.425 121.625C220.341 121.654 219.552 120.43 219.041 120.456C218.109 120.503 218.288 121.485 217.84 121.979C216.319 123.652 214.354 124.749 211.907 124.486C211.849 125.676 212.233 127.098 210.536 127.206L210.313 124.568C209.39 125.462 208.174 126.312 207.422 127.348C206.567 128.527 206.659 129.253 205.24 130.039C203.757 130.861 200.602 132.479 198.837 132.619C199.274 132.026 199.197 131.491 198.607 131.014C197.72 131.89 196.409 131.976 195.465 132.768C198.744 134.08 192.945 134.012 192.209 134.16C191.717 134.26 191.287 134.69 190.788 134.787C190.126 134.915 190.041 134.249 189.47 134.46C188.636 134.769 188.975 135.643 188.102 136.082C187.475 136.397 186.412 136.393 185.705 136.692C184.02 137.407 180.429 138.991 179.29 137.07C178.713 140.365 172.817 138.359 170.635 138.138C167.646 137.834 162.441 136.49 165.213 132.659ZM177.766 98.9474C178.189 98.6016 178.612 98.6269 179.036 99.0238C178.446 96.0421 183.006 94.5943 184.995 93.3266C187.634 91.6453 190.74 88.3831 194.192 88.6414C193.603 89.0592 193.016 89.4771 192.428 89.8949C193.267 89.9991 194.107 90.1033 194.945 90.2074C194.472 90.873 193.999 91.538 193.524 92.203C192.749 88.1132 188.707 93.2767 187.537 94.0292C186.358 94.7866 185.183 95.3512 184.136 96.275C183.099 97.1902 182.162 98.8383 180.447 98.0149C180.291 100.351 178.33 99.7171 176.974 101.011C176.917 100.199 177.403 99.6253 177.766 98.9474ZM195.679 87.2873C199.852 85.7903 203.486 83.0224 207.419 81.0453C211.175 79.1563 215.007 77.4602 218.826 75.6981C220.763 74.8039 224.312 72.4915 226.526 73.6699C229.514 75.2612 225.401 75.7746 224.332 76.3255C223.937 73.8751 222.553 76.095 223.38 77.4583C221.1 76.5154 216.127 80.2046 213.952 81.2222C213.46 81.4527 213.68 81.5858 213.12 81.857C212.983 81.9235 211.555 82.2348 211.147 82.366C209.099 83.0224 207.749 82.501 206.867 84.8683C206.682 84.3111 206.498 83.7534 206.313 83.1956C205.031 85.9524 201.134 87.1591 198.642 88.7893C198 89.2096 196.166 90.8397 195.351 90.5026C194.217 90.033 194.672 87.6479 195.679 87.2873ZM270.966 95.5989C272.728 95.7105 271.029 96.4975 271.513 97.0177C271.459 96.9591 272.575 97.8707 272.429 97.6204C272.625 97.9569 273.098 97.9446 273.34 98.6287C274.174 100.981 270.535 103.412 269.307 104.747C266.921 107.343 265.542 110.631 263.055 113.145C261.932 114.28 260.815 115.064 259.258 115.487C258.169 115.784 257.016 115.466 256.015 116.47C255.208 117.278 255.391 117.737 254.5 118.167C252.929 118.924 252.238 118.26 250.71 119.897C249.395 116.473 253.173 116.479 255.144 114.566C257.865 111.925 260.846 109.261 263.398 106.436C265.665 103.925 266.573 101.724 267.649 98.675C267.988 97.7135 268.357 95.6519 269.293 95.0486C270.749 94.1093 269.875 95.5293 270.966 95.5989ZM279.631 184.521C284.253 179.571 289.985 175.126 296.2 172.144C298.42 171.078 301.582 169.679 303.884 171.32C306.142 172.928 305.656 176.138 304.746 178.321C303.874 177.993 304.697 174.925 304.245 174.167C303.257 172.512 301.127 173.391 299.678 173.945C297.98 174.595 296.465 175.312 295.121 176.491C294.575 176.969 293.531 177.397 293.181 177.726C292.656 177.517 292.347 177.669 292.254 178.182C292.362 178.496 292.349 178.806 292.215 179.11C292.138 179.207 291.455 178.81 291.358 178.889C290.915 179.252 290.501 179.68 290.065 180.017C289.191 180.694 288.447 181.015 287.642 181.959C286.087 183.784 284.03 184.853 282.468 186.592C282.115 186.985 281.693 187.992 281.613 188.081C280.824 188.963 279.653 189.661 278.762 190.596C277.222 192.21 275.578 193.293 273.801 194.678C273.036 195.273 272.143 195.915 271.634 196.743C271.403 197.121 271.272 199.191 271.264 199.2C269.521 201.029 269.86 197.352 269.991 196.891C271.407 191.931 276.191 188.206 279.631 184.521ZM270.119 218.065C270.336 218.844 270.514 219.488 270.734 220.279C269.352 219.193 269.352 219.193 270.119 218.065ZM268.626 220.616C268.119 221.106 267.608 221.593 267.094 222.077C265.963 220.933 268.834 220.42 268.626 220.616ZM267.909 200.918C267.368 203.012 265.389 205.551 264.029 207.204C264.179 207.021 262.868 207.388 262.719 207.471C262.234 207.74 263.394 209.481 261.715 208.703C261.119 209.026 262.293 210.341 261.483 210.93C259.143 205.824 265.532 201.4 268.006 197.609C269.216 198.673 268.213 199.744 267.909 200.918ZM252.71 228.525C254.416 228.945 255.304 228.681 256.456 227.076C257.148 226.112 257.401 224.405 258.985 225.847L259.264 223.993C261.525 224.881 261.335 228.09 262.323 229.869C262.804 227.857 263.942 222.235 267.428 223.137C271.342 224.15 264.828 230.595 264.223 232.174C262.893 230.197 263.416 232.036 262.401 232.315C261.531 232.554 260.17 231.941 259.112 231.996C255.893 232.164 253.065 233.55 250.125 234.724C249.38 232.802 248.636 230.88 247.892 228.958C249.623 229.085 253.202 224.672 253.711 227.88C252.427 227.666 252.065 227.72 251.44 228.839C251.839 228.645 252.263 228.54 252.71 228.525ZM259.936 253.616C259.931 253.6 263.266 253.798 263.563 253.693C265.845 252.895 265.001 250.416 265.468 248.664C266.409 249.493 265.91 251.004 266.2 252.076C266.541 253.336 267.527 254.41 267.618 255.757C267.826 258.801 265.218 258.125 263.241 259.11C261.551 259.952 261.364 261.011 259.937 258.742C259.551 258.128 258.721 256.529 258.806 255.744C258.889 254.966 260.176 254.32 259.936 253.616ZM262.623 266.788L261.701 265.798C264.449 266.604 262.829 265.393 263.461 263.737C265.57 265.082 267.29 266.464 268.959 263.771L271.842 274.908C269.905 275.345 267.407 272.479 266.079 271.495C265.311 270.926 261.054 268.735 263.611 268.097C263.281 267.66 262.952 267.224 262.623 266.788ZM281.443 231.817C279.843 233.274 278.231 234.09 276.488 235.236C274.96 236.242 275.486 237.396 274.161 238.518C273.281 239.264 271.219 240.023 270.132 240.592C268.195 241.605 266.461 241.798 264.469 240.664C265.011 244.843 262.022 245.17 258.302 245.998C256.528 246.393 255.477 246.997 254.199 245.44C253.323 244.375 252.98 242.447 254.069 241.472C255.8 239.924 260.41 240.459 262.63 239.485C264.315 238.747 266.032 234.586 268.11 236.1C267.038 234.464 268.287 234.023 269.219 232.856C270.24 231.578 270.868 230.082 271.925 228.814C273.933 226.403 277.015 223.978 279.867 222.524C282.376 221.245 283.693 222.15 284.069 224.836C284.258 226.187 284.251 228.198 283.462 229.396C283.21 229.779 282.379 229.783 282.128 230.142C281.689 230.768 282.092 231.226 281.443 231.817ZM310.888 199.403C312.89 200.887 312.695 204.006 313.01 206.129C313.455 209.123 313.133 212.019 313.085 215.068C313.035 218.263 311.398 220.343 310.628 223.337C309.772 226.668 308.667 228.432 306.747 231.227C308.829 231.541 305.73 237.497 305.219 238.268C304.664 239.105 300.191 242.962 302.109 242.962C301.051 244.298 299.899 245.669 298.845 246.968C298.429 247.48 297.702 247.681 297.375 248.042C296.709 248.776 296.668 249.43 296.191 250.287C295.467 251.587 295.229 251.24 294.277 252.183C293.62 252.834 293.189 253.694 292.544 254.318C290.464 256.329 290.198 254.682 289.035 253.133C288.857 253.548 288.541 253.808 288.086 253.913C287.721 252.161 290.229 250.39 291.283 249.325C293.009 247.58 294.587 245.657 296.114 243.748C299.383 239.658 302.321 235.313 304.639 230.659C307.105 225.705 309.075 220.345 310.098 214.941C310.878 210.822 311.62 203.757 305.873 202.709C301.693 201.947 297.085 204.379 293.639 206.348C291.54 207.547 289.428 208.74 287.428 210.089C285.257 211.552 283.38 213.623 281.023 214.797C282.312 214.155 278.059 216.088 278.71 215.544C278.405 215.798 278.668 216.574 278.467 216.924C278.204 217.38 277.292 217.829 276.883 218.124C275.801 218.902 274.074 219.697 273.582 220.982C266.725 216.297 280.362 207.979 283.858 205.861C290.792 201.659 302.858 193.45 310.888 199.403ZM329.386 153.837C329.321 150.463 332.19 145.858 334.127 143.106C335.075 141.76 336.59 141.813 337.145 140.225C337.466 139.31 337.045 138.351 337.141 137.433C337.269 136.191 337.832 135.195 338.48 134.128C344.345 124.478 351.471 115.937 359.06 107.518C362.802 103.368 366.35 99.0583 370.386 95.1595C372.072 93.5312 376.603 87.6774 379.196 88.2629C380.568 88.5729 381.367 90.579 381.987 91.6027C383.011 93.2958 384.138 94.8815 385.383 96.4383C388.67 100.549 392.461 104.156 396.938 107.07C399.734 108.89 402.559 110.66 405.292 112.567C407.543 114.137 410.945 115.932 412.552 118.136C414.16 120.34 411.799 122.207 410.509 124.038C408.504 126.884 406.659 129.834 404.646 132.678C403.846 132.127 404.052 131.007 403.504 130.302C403.017 129.676 402.329 129.422 401.658 129.035C400.37 128.296 399.106 127.393 397.943 128.631C395.907 130.798 398.706 135.92 401.723 135.358C402.078 137.497 396.054 141.019 394.544 142.196C389.911 145.806 385.131 148.945 379.01 149.272C376.533 149.404 373.956 149.224 371.602 148.43C370.475 148.05 369.228 147.528 368.364 146.699C367.329 145.707 367.065 144.23 366.061 143.247C365.191 142.395 363.995 142.264 363.125 141.408C362.253 140.552 361.823 139.2 361.469 138.091C360.778 135.925 360.648 133.64 359.984 131.469C359.584 130.163 359.256 128.417 357.952 129.672C356.06 131.495 357.01 137.227 357.495 139.411C358.188 142.528 359.813 145.04 361.515 147.721C363.361 150.629 364.042 153.327 364.373 156.692C364.992 162.991 366.88 169.036 369.817 174.703C371.053 177.09 372.534 179.334 373.869 181.665C374.492 182.753 375.89 186.465 377.585 186.445C380.295 186.413 376.435 178.846 375.9 177.576C372.932 170.541 370.097 163.146 369.461 155.529C373.716 156.578 378.353 157.574 382.759 156.909C379.915 163 382.886 169.064 382.522 175.333C382.341 178.477 382.209 181.377 382.277 184.512C382.337 187.26 381.041 190.008 379.92 192.493C377.695 197.429 374.893 203.519 370.761 207.3C367.305 210.461 362.683 210.708 358.169 209.98C347.899 208.323 341.151 200.763 336.841 192.177C334.072 186.661 331.955 180.772 330.641 174.782C329.12 167.849 329.522 160.869 329.386 153.837ZM342.723 107.114C333.14 100.473 347.066 92.9315 354.155 93.9583C355.818 94.1987 358.877 94.8569 358.722 96.9351C358.594 98.6337 355.636 100.527 354.5 101.575C351.261 104.567 347.965 110.744 342.723 107.114ZM412.442 254.67C412.113 254.387 409.431 255.08 410.494 253.56C411.376 252.297 413.825 253.88 414.714 254.205C413.981 254.69 413.343 255.441 412.442 254.67ZM372.536 334.987C371.712 335.084 370.851 332.957 373.821 334.546C373.393 334.693 372.964 334.84 372.536 334.987ZM372.451 369.662C372.553 370.615 372.858 371.244 372.151 371.937C371.553 371.231 371.475 370.236 372.451 369.662ZM373.656 383.988C373.569 384.507 373.481 385.026 373.395 385.545C372.709 385.212 372.024 384.88 371.338 384.547C372.111 384.361 372.884 384.175 373.656 383.988ZM374.496 371.907C375.518 372.273 375.042 371.103 375.784 370.939C376.05 372.157 375.722 373.2 374.992 374.206C374.922 373.968 374.548 371.925 374.496 371.907ZM400.614 285.454C399.18 285.279 398.963 286.73 397.894 287.292C397.204 287.656 395.104 287.383 394.712 288.079C395.229 288.222 395.747 288.365 396.265 288.508C395.08 289.12 393.895 289.732 392.71 290.343C395.56 290.343 398.529 289.04 401.36 289.422C402.556 289.584 403.433 289.971 404.183 290.903C404.639 291.469 405.039 292.379 405.113 293.072C405.192 293.822 404.582 294.339 404.69 294.697C405.966 294.73 405.815 296.734 405.529 297.55C404.908 299.321 402.441 302.094 400.23 300.971C401.155 302.228 400.919 302.945 399.552 303.674C399.676 303.259 399.767 302.532 399.069 302.604C398.889 303.301 398.958 304.405 398.364 304.93C397.699 305.517 397.106 304.831 396.47 305.213C395.716 305.667 395.943 306.378 395.35 306.87C394.566 307.52 394.454 307.058 393.517 307.185C392.098 307.377 393.004 306.532 391.867 307.633C391.474 308.013 391.54 309.001 390.903 309.557C389.679 310.624 386.413 311.735 385.24 310.367C382.421 314.646 373.971 315.673 370.037 312.295C363.764 306.908 375.461 295.952 379.323 292.479C383.199 288.995 387.504 285.985 391.861 283.079C394.336 281.429 396.876 279.93 399.469 278.46C401.069 277.552 403.079 275.895 405.045 276.054C406.808 276.197 408.314 277.507 410.171 277.767C411.514 277.954 414.122 278.263 412.428 280.008C411.636 280.822 408.525 282.14 407.466 282.338C406.843 282.455 406.188 282.232 405.571 282.353C404.527 282.558 403.81 283.402 402.674 283.294C403.034 284.908 402.378 285.668 400.614 285.454ZM419.18 225.53C419.18 226.793 416.773 226.478 416.271 226.049C415.443 225.343 415.414 223.233 415.107 222.273C416.506 222.61 419.178 223.844 419.18 225.53ZM399.791 183.868C404.846 179.889 410.162 176.24 415.782 173.026C417.794 171.876 420.635 169.555 423.135 169.844C424.183 169.966 426.351 171.12 425.561 172.391C425.414 172.629 424.247 172.724 423.887 172.897C423.478 173.092 423.157 173.631 422.778 173.897C420.153 175.742 416.998 176.875 414.364 178.764C412.199 180.316 410.18 182.051 407.85 183.382C405.614 184.659 403.278 185.467 401.156 186.881C401.197 186.852 398.395 187.817 398.944 187.993C396.484 187.205 399.083 184.426 399.791 183.868ZM433.499 182.386C436.502 181.239 439.441 179.848 442.585 179.078C444.154 178.693 445.765 178.404 447.389 178.578C447.665 178.115 448.033 178.012 448.492 178.271C448.851 178.798 449.323 179.203 449.91 179.486C450.806 180.146 454.104 181.008 453.445 182.464C453.009 183.427 449.702 183.508 448.795 183.724C446.059 184.377 443.508 185.845 440.69 186.205C440.425 186.239 439.562 185.932 439.552 185.934C438.452 186.164 437.537 187.257 436.592 187.78C434.559 188.908 431.637 189.097 430.177 191.043C434.906 194.112 439.008 191.068 443.166 188.75C445.656 187.362 448.329 186.36 451.051 185.47C452.473 185.006 453.908 184.523 455.35 184.115C455.947 183.906 456.56 183.757 457.189 183.665C457.775 183.553 458.194 183.757 458.447 184.277C460.189 184.222 460.339 183.175 461.388 185.128C462.867 187.882 460.604 187.742 458.478 188.08C455.529 188.548 452.53 189.603 449.624 190.303C448.954 190.464 443.078 191.769 443.071 191.815C442.805 193.592 459.67 191.947 461.117 191.68C463.672 191.21 466.413 189.873 469.058 190.195C471.089 190.442 475.715 193.296 472.476 195.192C471.838 192.268 469.648 194.683 468.505 195.669C466.983 196.983 464.801 196.856 462.713 197.371C459.857 198.073 452.545 200.71 450.517 197.349C451.159 200.295 439.504 198.798 437.901 198.7C436.339 198.605 434.323 198.923 432.813 198.496C431.829 198.218 431.281 197.605 430.354 197.467C430.127 197.701 429.855 197.861 429.538 197.945C429.068 197.718 428.644 197.428 428.266 197.078C425.145 195.704 420.315 194.944 422.05 190.568C423.686 186.441 429.531 183.901 433.499 182.386ZM462.754 184.937C462.832 184.68 462.91 184.423 462.987 184.165C462.997 184.953 464.96 185.29 464.733 186.311C464.23 188.572 461.965 185.175 461.771 184.804C462.099 184.849 462.426 184.892 462.754 184.937ZM474.738 188.694C474.965 189.62 477.576 191.592 476.929 192.047C475.9 190.707 473.055 191.316 474.738 188.694ZM430.708 273.215C431.664 271.4 434.553 274.491 434.248 271.392C435.819 271.528 434.838 272.673 436.72 272.17C437.426 271.981 437.903 271.232 438.762 271.06C438.991 271.014 439.982 271.089 440.324 271.079C441.456 271.046 445.892 270.925 442.839 269.503C444.548 268.421 444.758 268.97 446.301 269.962C445.905 267.912 448.175 269.075 449.232 269.331C448.478 268.162 450.348 266.918 450.955 266.128C450.738 267.345 450.852 268.708 452.691 267.93C453.15 267.736 453.047 266.876 453.41 266.735C454.076 266.478 454.448 266.946 454.686 266.919C454.921 266.894 455.416 267.021 455.91 266.842C456.551 266.611 456.242 265.787 457.055 265.664C457.585 265.585 457.972 266.33 458.619 266.336C458.951 266.34 459.505 266.017 459.757 266.034C459.801 266.037 460.117 265.307 460.505 265.289C461.073 265.263 461.304 266.719 461.511 267.002C462.505 268.352 463.826 269.232 465.35 269.952C462.593 272.373 457.032 272.116 453.565 272.932C451.687 273.375 450.085 274.013 448.367 274.835C447.952 275.093 447.595 275.41 447.297 275.785C447.053 275.63 446.809 275.476 446.566 275.321C445.625 275.377 444.734 274.93 443.674 275.102C440.4 275.63 437.837 277.979 434.51 278.502C433.015 278.738 431.786 279.066 430.812 277.825C429.958 276.737 430.099 274.373 430.708 273.215ZM426.219 258.748C426.961 259.349 426.069 261.305 427.505 261.093C428.525 260.942 428.321 259.428 429.122 259.106C430.173 258.686 430.808 259.685 431.797 259.592C433.639 259.418 433.533 257.878 431.977 257.201C433.595 256.792 434.114 258.625 435.547 258.608C437.43 258.586 436.98 256.459 438.582 256.107C439.276 255.954 439.044 256.93 439.494 257.051C440.395 257.293 441.023 256.877 441.819 256.511C442.532 256.184 443.04 255.552 443.819 255.337C444.174 255.239 445.075 255.418 445.335 255.237C445.859 254.871 446.329 253.444 446.845 253.256C446.74 253.294 448.432 254.106 448.675 254.183C448.526 254.785 448.182 254.856 447.641 254.398C447.641 255.757 451.585 256.18 450.776 254.501C452.909 255.346 451.321 255.781 451.108 256.962C451.023 257.436 450.734 257.423 450.82 257.925C450.859 258.156 451.977 257.957 451.963 258.272C451.869 260.3 445.119 260.924 443.84 261.103C441.192 261.473 438.687 262.096 436.135 262.864C434.234 263.435 430.959 265.071 428.937 264.969C426.028 264.823 425.649 261.19 426.219 258.748ZM419.722 238.051C419.012 235.795 421.287 231.134 424.25 231.717C424.979 231.86 425.158 232.438 425.723 232.694C426.512 233.053 427.796 232.864 428.48 233.235C430.013 234.066 429.24 236.185 430.777 236.95C428.351 237.513 420.848 241.638 419.722 238.051ZM422.529 246.818C423.574 246.28 425.269 246.211 425.981 245.176C426.337 245.411 427.008 246.841 427.644 246.622C427.942 246.52 428.249 245.745 428.227 245.746C428.794 245.731 428.907 244.995 429.774 245.078C430.569 245.154 431.46 246.07 432.168 246.412C432.047 244.141 432.654 243.924 434.577 242.709C434.998 242.443 435.35 241.443 435.739 241.039C435.367 243.421 436.305 243.434 438.291 243.792C440.782 244.241 442.333 245.522 443.332 247.826C441.209 247.43 438.471 247.907 437.635 250.092C435.941 247.128 429.785 251.218 427.793 252.055C426.315 252.677 424.595 253.513 423.356 252.064C422.483 251.043 422.983 249.816 423.002 248.909C423.007 248.624 423.314 248.608 423.285 248.184C423.249 247.642 422.514 247.426 422.529 246.818ZM445.189 293.424C444.628 293.627 441.743 293.741 441.725 292.826C441.709 292.018 446.816 292.832 445.189 293.424ZM440.502 290.463C438.32 291.752 435.877 287.211 435.075 285.903C437.365 286.184 438.482 284.349 439.831 282.955C441.115 285.648 443.063 284.225 445.113 283.326C447.53 282.265 450.179 282.257 452.655 281.406C453.428 281.14 454.141 280.745 454.895 280.441C455.502 280.224 456.108 280.001 456.711 279.772C457.139 279.402 457.292 278.947 457.167 278.407C456.964 277.953 457.102 277.667 457.582 277.548C458.152 277.711 458.734 277.806 459.328 277.831C460.283 277.65 461.654 276.788 460.502 275.859C461.737 274.785 462.973 275.852 464.162 276.323C463.879 275.552 463.598 274.781 463.315 274.01C463.905 274.249 465.655 276.591 465.833 276.578C466.965 276.497 466.847 275.043 467.497 274.456C467.872 274.9 467.98 278.204 469.455 277.091C470.085 276.615 468.728 274.994 468.393 274.625C470.08 274.99 471.553 276.919 472.01 278.416C471.208 278.527 470.468 278.373 469.787 277.953C469.352 280.038 473.384 279.193 474.036 280.283C475.314 282.416 467.001 283.898 465.918 284.096C463.75 284.491 461.192 284.639 459.205 285.559C457.302 286.439 456.851 286.691 454.627 286.857C452.088 287.045 449.611 287.846 447.156 288.47C445.023 289.011 442.393 289.348 440.502 290.463ZM486.903 214.108C488.907 213.417 495.66 209.832 497.379 211.426C497.197 211.257 498.618 214.069 498.603 213.892C498.726 215.354 498.688 215.943 496.808 216.644C495.462 217.145 494.29 216.079 493.078 216.503C491.748 216.968 492.679 217.791 491.994 218.366C491.244 218.997 489.797 219.269 488.863 219.545C486.577 220.221 484.273 220.787 481.998 221.515C477.369 222.997 472.467 224.377 467.71 225.425C464.155 226.208 458.121 228.155 454.845 225.856C454.526 227.163 453.744 226.984 452.659 227.175C451.808 227.324 450.268 227.727 449.512 227.748C448.252 227.784 444.751 227.467 445.233 225.776C445.1 226.242 447.956 224.646 447.462 224.547C448.675 224.792 448.282 224.207 449.275 223.882C450.573 223.457 451.93 223.48 453.255 223.03C456.596 221.896 459.398 220.424 462.924 219.714C470.978 218.091 479.133 216.785 486.903 214.108ZM164.033 388.889C163.381 388.906 162.873 387.13 164.858 388.398C164.584 388.562 164.309 388.725 164.033 388.889ZM148.35 386.592C147.462 386.809 147.109 386.335 147.289 385.169C148.527 384.701 148.88 385.175 148.35 386.592ZM136.242 384.213C136.015 383.174 136.819 382.94 137.549 382.473C137.475 383.85 137.475 383.85 136.242 384.213ZM105.777 375.663C104.55 375.404 102.915 374.255 102.634 376.185C102.428 375.738 101.381 373.636 101.831 373.15C102.065 372.895 102.955 374.072 102.86 373.956C103.934 371.875 105.786 374.386 106.821 375.129C106.473 375.307 106.125 375.485 105.777 375.663ZM424.862 145.718C425.286 144.86 425.786 144.588 426.36 144.902C425.458 146.908 422.402 147.996 424.862 145.718ZM446.093 126.881C446.85 128.24 445.711 128.815 444.899 129.944C445.374 128.726 445.704 127.881 446.093 126.881ZM538.365 259.539C541.095 259.538 546.91 258.159 548.557 261.147C549.646 259.116 550.884 262.925 551.83 263.535C551.936 263.604 552.617 263.106 552.933 263.289C553.411 263.566 553.823 264.32 554.096 264.768C554.921 266.119 555.275 267.725 555.732 269.212C550.964 269.212 546.075 268.148 541.311 267.762C538.184 267.508 535.118 267.501 531.986 267.662C531.364 267.694 530.128 267.498 529.596 267.61C529.056 267.724 528.075 268.778 527.48 268.609C528.406 270.273 540.266 274.304 541.171 272.46C540.098 271.839 537.717 271.362 537.719 269.861C537.721 268.179 539.953 268.182 541.136 268.231C543.723 268.339 548.055 269.164 549.116 271.74C549.57 272.845 549.71 275.626 549.21 276.692C548.888 277.38 548.342 278.208 547.477 278.348C547.123 278.405 546.612 277.953 546.558 277.964C544.783 278.325 541.497 279.69 539.562 277.765C538.166 279.495 531.442 277.606 529.383 276.953C525.783 275.812 520.826 274.244 518.639 271.027C515.973 267.106 521.393 263.792 524.504 262.199C528.758 260.02 533.617 259.541 538.365 259.539ZM556.533 268.605C557.371 268.831 558.207 269.058 559.044 269.284C558.82 270.689 555.519 269.578 556.533 268.605ZM581.831 319.683C582.088 314.053 580.389 309.095 579.407 303.65C579.164 302.3 579.413 299.94 578.342 298.83C577.319 297.769 575.036 298.632 574.946 296.756C573.938 297.886 574.04 298.122 572.799 296.822C573.025 297.38 573.058 297.946 572.897 298.523C572.127 298.1 569.335 296.696 569.57 298.616C567.274 298.13 567.939 296.755 566.63 295.705C566.444 295.556 565.696 296.085 565.405 295.86C564.878 295.451 564.618 295.08 564.174 294.554C563.609 295.207 562.841 295.679 562.151 296.196C561.75 295.359 560.969 294.745 560.031 294.542C560.908 296.3 563.077 298.576 560.103 299.577C558.327 300.173 555.419 299.442 553.538 299.581C546.569 300.099 538.935 298.644 532.196 297.054C525.273 295.42 518.273 293.115 512.047 289.745C510.72 289.026 509.884 288.176 508.741 287.284C507.63 286.418 506.823 286.281 505.487 285.727C503.084 284.73 500.885 283.13 499.057 281.348C495.126 277.515 491.473 272.503 492.567 266.891C493.659 261.298 497.673 256.927 501.969 253.244C507.042 248.894 512.77 245.262 518.85 242.334C521.568 241.026 528.521 236.109 531.206 238.986C532.923 240.824 531.957 243.169 529.612 243.577C529.034 243.678 528.429 243.307 527.844 243.561C527.001 243.929 527.298 244.362 526.95 244.669C526.346 245.201 525.703 246.03 524.8 246.491C521.649 248.1 518.602 249.375 515.59 251.335C514.201 252.238 512.864 252.627 511.64 253.415C510.423 254.198 510.146 255.495 508.509 254.695C509.092 256.975 505.591 259.417 504.219 260.814C502.093 262.978 499.545 265.739 500.537 268.939C502.478 275.205 511.25 279.963 516.864 282.717C523.87 286.154 531.596 288.89 539.396 290.022C543.274 290.585 547.282 290.932 551.189 291.289C554.232 291.567 558.9 290.55 561.089 293.173C561.156 290.114 571.134 290.384 573.258 289.992C569 276.054 560.639 263.662 551.702 252.084C547.315 246.401 543.007 240.555 538.007 235.345C532.533 229.641 526.279 224.544 520.337 219.295C508.683 209.001 495.501 199.813 482.088 191.72C468.706 183.646 454.847 175.699 440.187 169.942C423.442 163.367 405.813 159.042 388.165 155.359C390.559 152.438 394.453 151.013 397.518 148.876C398.592 148.127 400.042 146.331 401.436 146.086C402.946 145.82 404.135 147.375 405.209 148.156C408.294 150.397 410.427 149.446 413.96 149.311C416.074 149.23 421.081 150.357 421.972 147.619C423.157 149.13 421.438 150.342 420.559 151.45C421.199 152.305 421.715 151.418 422.348 151.284C422.543 151.129 422.737 150.974 422.932 150.819C423.246 150.384 423.529 150.382 423.781 150.811C424.158 151.354 424.538 151.234 424.92 150.45C425.025 150.387 425.129 150.323 425.234 150.26C425.691 150.027 426.132 149.659 426.557 149.369C429.767 147.171 432.629 145.3 436.173 143.681C439.149 142.323 437.549 139.724 439.511 137.889C439.955 137.473 440.702 137.681 441.177 137.33C441.642 136.984 441.712 136.592 442.051 136.221C442.866 135.331 441.896 134.297 443.976 135.388L443.225 131.344C447.304 135.133 447.287 124.229 447.845 122.616C447.771 122.829 448.211 121.178 448.21 121.192C448.33 117.92 448.797 115.548 444.795 115.359C446.31 114.446 446.773 116.228 447.473 114.383C447.823 113.458 446.73 111.87 448.472 112.466C448.84 110.501 448.477 108.911 448.02 107.001C447.551 105.047 447.827 103.743 447.848 101.789C447.872 99.5717 446.788 97.3437 446.441 95.1607C446.17 93.4511 446.45 90.7547 444.142 91.3827C443.817 90.8964 444.957 89.4007 444.911 88.6611C444.839 87.5123 443.537 86.345 443.168 85.2418C442.626 85.778 441.861 85.9567 441.123 85.7145C441.816 84.2156 441.165 83.7121 440.502 82.4197C440.122 81.6795 440.351 80.8622 439.537 80.3316C439.071 80.0271 438.275 80.5399 437.91 80.1831C437.126 79.4188 437.415 78.405 436.876 77.3979C436.2 76.1351 434.655 75.1706 433.59 74.2227C427.604 68.8946 421.103 64.8227 413.141 62.7408C405.109 60.6404 395.745 59.8878 387.739 62.3106C384.54 63.2788 381.699 63.1796 378.819 64.9878C377.885 65.5746 377.785 65.4174 377.311 66.3955C377.201 66.6235 378.195 67.2306 377.587 67.6035C376.925 68.0084 376.195 67.185 375.857 66.5015C371.691 69.3895 367.787 73.2397 365.414 77.6543C363.057 82.0412 362.84 87.1949 361.94 91.9621C357.787 87.4186 352.17 85.2405 346.063 87.4247C340.741 89.3279 336.616 93.5115 335.575 98.9313C334.94 102.235 335.633 105.581 337.2 108.562C337.878 109.851 338.699 111.277 339.945 112.144C340.93 112.829 342.617 112.733 343.081 113.969C343.792 115.863 339.685 119.954 338.619 121.612C336.69 124.612 334.898 127.71 333.533 130.987C328.642 124.37 323.959 117.142 318.397 111.041C313.148 105.282 306.89 100.117 300.752 95.2495C288.014 85.1469 274.768 75.6556 260.518 67.6072C247.25 60.1128 231.223 55.952 215.76 57.4232C200.651 58.8611 189.084 68.0121 179.35 78.5665C160.634 98.8598 149.171 127.784 148.051 154.798C147.715 162.913 148.36 170.922 150.453 178.793C151.45 182.541 151.305 186.227 151.884 190.023C152.538 194.305 153.669 198.571 154.762 202.766C158.927 218.745 164.234 234.712 170.189 250.162C173.285 258.196 177.031 266.05 182.099 273.135C184.44 276.408 187.472 278.968 189.991 282.075C192.435 285.089 193.08 288.788 193.618 292.486C194.906 301.353 195.761 310.257 196.535 319.176C196.864 322.956 197.248 326.703 197.771 330.456C198.227 333.729 197.081 333.568 194.206 334.679C194.789 331.738 181.054 333.739 179.757 333.94C178.346 334.158 176.852 334.161 175.74 334.335C174.498 334.529 173.281 334.809 171.85 334.77C169.746 334.712 165.807 334.197 165.004 336.769C164.451 333.787 160.799 337.047 163.501 336.494C160.728 336.791 157.898 336.297 155.092 336.547C151.875 336.833 148.631 337.105 145.437 337.569C143.214 337.891 141.092 338.711 138.865 338.949C136.014 339.254 133.04 339.226 130.162 339.469C119.546 340.366 108.543 342.583 98.2247 345.122C95.8873 345.697 93.2018 346.106 90.9687 347.029C90.3708 347.276 89.8328 347.828 89.26 348.04C88.2998 348.395 88.4311 348.15 87.5784 348.312C82.4692 349.29 77.1985 350.888 72.09 352.142C69.2564 352.837 64.6473 353.465 62.3356 355.359C61.2995 356.207 60.394 357.711 62.0544 358.675C63.3808 359.445 65.2741 358.216 66.3475 357.552C65.3912 359.939 63.5873 361.128 64.5617 363.844C65.3307 365.99 67.067 368.634 69.7384 367.25C70.0962 368.047 70.241 369.632 71.2945 369.925C72.2412 370.188 72.9266 369.039 73.854 369.31C74.186 369.406 74.0599 370.007 74.3572 370.164C74.8695 370.434 75.3888 370.549 75.9758 370.739C76.4803 370.903 77.2925 371.24 77.8189 371.276C78.1529 371.298 78.94 370.751 78.9374 370.751C79.7045 370.863 80.117 372.269 80.6692 372.675C81.3861 373.202 81.9782 373.322 82.876 373.513C84.7423 373.91 87.1479 374.591 88.3796 372.761C88.0978 374.068 89.9531 373.939 90.7717 374.105C90.681 373.417 90.2839 372.786 89.6713 372.408C91.5015 372.524 90.7595 374.267 92.1123 374.727C93.0763 375.054 92.9669 374.222 93.7044 374.13C94.6762 374.008 95.4137 374.684 96.9312 374.061C97.26 375.46 97.3804 376.872 99.1753 377.081C100.229 377.203 102.685 375.382 102.546 376.898C104.9 376.237 105.793 376.684 107.023 378.67C107.231 377.45 108.237 377.804 109.159 377.729C110.622 377.61 110.659 377.722 111.793 376.929C111.897 376.857 112.789 374.9 113.185 376.116C113.364 376.661 112.185 377.943 111.749 378.269C112.291 378.532 114.066 379.45 114.749 379.282C115.34 379.136 115.342 378.169 116.052 378.119C115.878 378.675 115.705 379.231 115.531 379.787C116.912 379.979 118.066 379.094 119.156 378.446C120.196 380.964 123.169 379.545 124.786 381.441C125.641 382.443 125.681 383.205 127.31 383.467C128.978 383.735 130.434 383.034 131.851 384.351C131.402 383.534 130.283 382.856 131.395 381.978C132.152 383.007 132.542 384.245 133.415 385.202C133.535 384.716 133.656 384.229 133.776 383.742C136.051 386.073 138.915 386.093 141.829 387.385V385.68C143.915 388.729 144.027 386.799 146.519 385.554C146.35 386.451 146.18 387.347 146.011 388.243C147.804 388.114 149.48 390.149 150.952 388.42C151.842 389.849 152.92 389.146 154.377 389.599C155.206 389.858 155.824 390.639 156.63 390.922C157.839 391.346 158.2 391.326 159.339 391.695C160.351 392.023 160.926 392.662 162.193 392.866C163.017 392.999 163.763 392.99 164.551 392.953C164.855 392.939 164.755 392.283 165.431 392.436C166.477 392.673 167.256 393.93 168.009 394.574C169.141 391.847 172.313 395.499 173.846 395.986C173.992 395.287 173.966 394.444 174.494 393.87C175.115 395.171 175.352 396.265 176.639 397.104C177.383 397.587 178.474 397.934 179.333 398.111C179.875 398.222 180.861 398.088 181.202 398.249C181.784 398.522 181.998 399.251 182.586 399.319C182.931 399.359 183.444 398.488 183.702 398.556C184.886 398.866 185.544 400.243 186.74 400.988C190.298 403.205 194.776 403.42 198.74 403.906C199.735 404.028 199.879 403.768 200.688 404.327C201.119 404.626 200.923 405.534 201.453 405.789C203.452 406.748 203.453 404.701 203.872 403.43C204.533 404.265 204.647 405.368 205.551 406.032C206.045 406.019 206.539 406.029 207.032 406.064C207.31 406.368 207.493 406.719 207.578 407.116C208.775 407.89 210.131 407.621 211.367 408.202C211.772 408.393 212.49 409.544 212.99 409.875C213.884 410.468 215.266 410.785 216.287 411.043C218.429 411.583 221.5 410.865 222.774 413.007C224.466 411.27 223.812 413.344 224.961 413.78C225.639 414.037 226.659 413.014 227.411 413.116C228.766 413.298 229.254 414.703 229.688 415.724C230.513 415.548 229.946 413.313 229.923 412.823C230.948 412.707 231.176 415.292 231.353 415.86C232.972 415.114 230.315 412.791 232.055 412.046C231.896 414.025 233.542 415.655 230.601 415.938C231.007 417.13 240.493 418.454 241.152 417.402C241.299 419.347 242.663 417.53 243.166 416.864C243.223 417.999 242.819 419.61 244.149 420.137C245.052 420.495 247.09 419.569 247.444 418.721C247.849 420.016 248.528 419.974 249.371 420.797C249.95 421.362 250.331 422.342 250.939 422.816C252.057 423.686 254.136 423.553 255.439 423.359C257.987 422.978 257.686 422.51 258.594 425.047C258.799 424.084 259.443 422.07 260.565 423.567C261.28 424.518 259.759 426.615 259.319 427.45C260.301 426.933 261.276 426.321 262.394 426.098C262.456 426.428 262.513 427.127 262.349 427.432C262.382 427.371 263.574 428.136 264.016 428.348C263.91 428.297 264.365 426.391 264.353 426.454C265.925 427.383 264.834 429.16 266.227 430.076C266.586 430.314 267.431 430.037 267.866 430.181C268.623 430.433 269.278 431.112 269.952 431.51C269.414 430.82 269.491 429.661 269.528 428.864C269.87 429.045 270.115 429.723 270.461 429.777C270.591 429.797 271.946 429.969 271.937 429.963C273.347 430.908 273.057 431.027 271.846 432.164C272.279 432.815 274.086 431.684 274.575 431.496C274.678 431.751 274.704 432.675 274.897 432.841C275.013 433.114 275.13 433.388 275.247 433.661C275.608 433.404 275.996 433.318 276.409 433.403C276.67 433.49 278.71 434.285 278.848 434.013C278.402 433.875 277.997 433.663 277.636 433.377C278.813 432.364 279.587 431.825 280.671 433.289C280.808 433.473 280.338 434.135 280.477 434.375C280.996 435.27 282.06 435.982 282.783 436.711C283.082 435.705 282.386 433.184 284.047 433.276C285.375 433.349 286.385 436.429 285.925 437.387C286.453 436.834 289.604 436.285 290.198 436.458C291.88 436.946 291.408 438.435 293.477 436.253C294.888 437.186 293.645 437.539 293.899 438.675C294.271 438.75 294.624 438.662 294.958 438.411C294.708 443.241 298.43 439.55 300.847 440.288C301.795 440.578 302.038 441.609 303.056 441.91C303.595 442.069 304.194 441.693 304.718 441.784C305.137 441.727 305.554 441.656 305.969 441.572C306.494 441.32 306.74 441.601 306.708 442.417C307.552 442.837 307.233 443 308.22 443.082C308.856 443.135 309.441 442.501 310.164 442.609C311.411 442.796 311.246 443.713 312.043 444.192C312.759 444.623 313.568 444.609 314.451 444.526C314.901 444.483 316.164 443.928 316.316 443.926C317.259 443.914 316.748 443.722 317.88 444.498C318.762 445.103 319.132 445.495 320.214 445.773C321.456 446.092 323.658 446.789 324.493 445.93C325.622 447.549 326.505 446.361 327.994 446.468C328.756 446.523 328.877 446.807 329.556 446.921C330.655 447.104 332.026 446.945 333.196 447.305C335.038 447.872 335.246 448.157 337.129 448.233C337.469 448.106 337.809 447.978 338.148 447.851C338.249 448.394 338.516 448.838 338.95 449.181C340.003 449.392 340.695 448.883 341.564 448.325C342.211 450.256 344.312 450.425 346.108 450.679C349.008 451.089 351.78 451.313 354.576 452.225C356.937 452.996 359.303 453.861 361.574 454.848C363.573 455.716 365.459 457.015 367.72 456.405C372.844 455.024 377.81 449.986 382.097 447.094C387.174 443.669 392.65 440.846 397.956 437.766C419.077 425.505 441.391 415.133 462.217 402.416C473.586 395.473 484.136 387.224 496.346 381.607C494.608 388.486 491.649 395.468 492.184 402.67C492.399 405.572 493.291 409.001 495.642 411.027C498.547 413.532 501.784 411.937 504.563 410.147C510.517 406.313 514.488 400.718 518.945 395.465C524.216 389.25 528.305 382.573 532.176 375.489C533.103 376.736 532.398 378.825 532.411 380.207C532.429 381.971 532.926 383.671 533.78 385.246C535.985 389.31 540.181 390.295 543.972 387.511C551.269 382.152 555.503 372.608 559.413 364.923C561.643 368.895 564.808 373.896 570.163 371.059C574.581 368.717 577.177 363.485 578.529 359.054C582.475 346.119 581.225 332.943 581.831 319.683Z" fill="#232323"/>
<path fill-rule="evenodd" clip-rule="evenodd" d="M575.13 241.986C574.626 240.814 574.405 241.005 575.331 239.869C576.053 240.55 575.475 241.112 575.13 241.986ZM597.461 312.932C596.044 309.073 596.919 304.884 596.059 300.926C595.664 299.111 595.04 297.349 594.816 295.501C594.716 294.681 593.953 290.988 594.472 290.407C592.874 289.48 592.869 288.794 592.499 286.977C593.069 286.398 592.997 285.904 592.284 285.495C591.818 284.955 591.352 284.414 590.885 283.874C592.925 284.829 591.718 282.385 591.51 280.977C591.345 279.864 591.235 278.703 590.847 277.636C590.37 276.324 589.31 275.661 591.516 275.661C590.79 274.871 589.704 274.054 589.343 273.086C588.823 271.693 589.681 269.851 588.62 268.62C588.029 267.934 584.98 267.665 585.515 266.182C585.787 265.427 587.023 265.991 587.405 265.461C588.908 263.381 584.471 262.518 584.253 261.633C583.972 260.486 585.574 260.229 585.673 259.156C585.768 258.106 584.064 256.38 583.613 255.441C582.999 255.584 582.326 256.514 581.623 256.07C581.49 255.986 581.69 252.35 581.531 251.868C581.374 251.393 581.052 250.135 580.938 249.902C580.483 248.977 579.181 248.526 578.974 247.433C578.851 246.781 581.519 245.794 578.459 245.763C579.558 243.908 577.544 242.781 576.811 241.196C575.869 239.158 575.314 236.956 574.346 234.907C573.405 232.916 572.353 231.027 570.996 229.266C569.768 227.671 569.237 226.138 568.256 224.454C568.06 224.306 567.863 224.158 567.667 224.01C566.849 224.124 566.586 223.767 566.879 222.939C566.253 222.051 565.788 221.103 565.236 220.176C564.594 219.098 563.729 218.219 563.066 217.171C562.186 215.781 561.926 214.213 560.932 212.819C559.71 211.104 558.335 209.592 557.202 207.812C555.782 205.583 554.21 204.198 552.423 202.471C551.573 201.649 551.471 199.596 550.429 198.428C549.294 197.157 548.174 196.812 547.387 195.143C546.364 192.972 544.863 191.936 543.401 190.059C542.195 188.511 541.606 186.731 540.278 185.234C539.136 183.947 537.839 182.772 536.62 181.552C535.08 180.012 533.944 178.141 532.341 176.676C532.572 176.888 530.947 175.654 531.028 175.693C530.669 175.518 529.508 175.376 529.677 175.472C527.258 174.11 524.228 169.128 520.589 171.768C518.674 173.156 519.592 175.703 520.929 177.086C521.503 177.68 524.486 180.609 525.13 179.374C525.826 180.318 527.968 184.882 529.75 183.575C529.569 185.135 530.512 184.617 531.135 185.671C531.545 186.367 531.346 186.709 531.644 187.795C532.466 190.78 535.601 193.696 537.271 196.299C541.428 202.778 546.013 208.924 550.174 215.41C554.139 221.593 558.58 227.459 562.384 233.724C566.71 240.849 572.101 247.574 575.36 255.254C575.47 255.513 576.376 255.921 576.6 256.309C576.992 256.983 576.908 258.147 577.16 258.91C578.035 261.556 579.453 264.16 581.068 266.351C582.485 268.273 582.588 270.885 583.563 273.141C584.938 276.319 586.391 279.464 587.727 282.658C589.806 287.63 591.215 292.395 592.652 297.586C593.583 300.95 594.324 304.312 594.621 307.785C594.893 310.98 594.96 314.307 596.195 317.331C597.036 316.087 598.028 314.474 597.461 312.932Z" fill="#232323"/>
<path fill-rule="evenodd" clip-rule="evenodd" d="M121.786 381.38C120.291 381.091 118.885 380.706 118.569 379.062C118.352 379.837 118.135 380.612 117.919 381.387C119.738 381.781 121.558 382.176 123.377 382.571C122.952 381.854 122.642 381.546 121.786 381.38Z" fill="#232323"/>
<path fill-rule="evenodd" clip-rule="evenodd" d="M125.795 111.718C125.909 111.254 126.055 110.8 126.236 110.357C126.359 110.789 126.962 111.723 126.611 112.13C126.164 112.648 125.712 112.355 125.795 111.718ZM133.121 98.3694C133.611 98.5765 134.673 98.6165 135.281 98.7916C133.702 100.093 133.424 99.7099 131.382 99.5589C131.291 98.2424 131.85 97.8338 133.121 98.3694ZM119.432 130.959C119.644 130.964 119.856 130.969 120.069 130.974C120.082 130.401 120.066 129.829 120.021 129.257C122.175 129.707 120.956 126.104 120.279 125.357C122.38 125.424 123.403 119.055 124.069 117.828C124.66 116.738 125.329 116.316 125.761 114.988C126.138 113.825 126.547 112.778 127.092 111.678C128.345 109.149 129.988 106.852 129.684 103.904C130.746 106.116 131.679 103.908 132.352 102.85C133.436 101.146 136.082 98.9715 136.363 96.9476C136.612 95.1658 135.229 95.0715 136.045 93.4192C136.87 91.7465 137.549 91.9141 138.994 91.3792C139.956 91.0229 140.147 91.4556 140.825 90.2932C141.265 89.5407 141.109 88.9798 141.673 88.3629C141.905 88.5564 142.169 88.6366 142.465 88.6033C142.922 88.0258 143.222 87.3824 143.364 86.673C143.737 85.7152 143.917 84.8357 144.478 83.9236C145.011 83.0595 145.955 80.7477 146.456 80.3311C146.988 79.8886 150.003 80.1135 149.99 80.1296C151.235 78.6295 148.95 77.1349 152.114 77.4511C151.489 76.3368 153.684 74.9538 154.322 74.3338C155.913 72.7862 156.04 72.07 156.376 70.1237C156.546 69.1314 155.433 69.2461 156.925 69.0199C157.543 68.9268 158.135 69.6824 158.58 69.5715C160.546 69.0834 158.489 69.1764 159.032 68.4091C159.203 68.1657 160.078 67.1833 160.069 67.1938C160.027 67.2431 160.266 66.3389 160.464 66.1066C160.84 66.0758 161.21 66.0129 161.574 65.918C161.759 65.5605 161.922 65.1944 162.064 64.8197C163.486 63.6832 165.615 63.1748 166.599 61.9261C167.236 61.1187 167.045 60.328 167.868 59.5231C168.651 58.7564 169.687 59.3117 169.842 57.5799C170.04 55.3765 167.569 54.396 166.558 56.6196C163.816 53.3858 152.357 65.2505 151.033 66.8005C145.283 73.5295 139.631 80.4248 134.915 87.8655C130.319 95.1159 126.547 102.745 123.599 110.741C122.177 114.597 121.312 118.435 120.444 122.424C120.152 123.759 117.974 129.711 118.88 131.043C119.064 131.015 119.248 130.987 119.432 130.959Z" fill="#232323"/>
<path fill-rule="evenodd" clip-rule="evenodd" d="M572.047 295.971C573.016 295.352 573.016 295.352 573.186 294.183C571.887 294.409 571.887 294.409 572.047 295.971Z" fill="#232323"/>
<path fill-rule="evenodd" clip-rule="evenodd" d="M94.6345 374.628C94.6467 374.627 94.6557 374.63 94.6628 374.637C94.6422 374.611 94.5675 374.537 94.6345 374.628Z" fill="#232323"/>
<path fill-rule="evenodd" clip-rule="evenodd" d="M93.9847 375.255C94.284 375.874 94.7647 376.028 95.4276 375.716C95.6889 376.073 93.161 373.486 93.9847 375.255Z" fill="#232323"/>
<path fill-rule="evenodd" clip-rule="evenodd" d="M137.699 92.5549C136.182 95.4029 138.082 93.3315 137.984 94.2566C138.048 93.6489 138.311 92.783 137.699 92.5549Z" fill="#232323"/>
<path fill-rule="evenodd" clip-rule="evenodd" d="M384.303 136.634C384.96 141.741 392.256 139.326 393.897 136.237C395.092 133.988 398.109 125.101 394.863 123.224C392.456 121.832 391.942 127.83 391.348 129.17C390.354 131.414 389.577 129.824 387.366 130.4C384.927 131.035 384.032 134.517 384.303 136.634Z" fill="#232323"/>
<path fill-rule="evenodd" clip-rule="evenodd" d="M376.332 127.287C378.94 127.842 381.496 127.556 383.348 125.584C384.374 124.492 385.739 122.325 383.892 121.268C382.218 120.311 380.32 122.553 378.558 122.089C376.161 121.459 377.395 118.997 376.572 117.371C373.55 119.038 371.864 126.337 376.332 127.287Z" fill="#232323"/>
<path fill-rule="evenodd" clip-rule="evenodd" d="M379.036 140.182C376.522 140.177 376.502 143.138 377.814 144.407C379.07 145.621 382.245 146.85 383.947 145.906C387.305 144.042 381.07 140.374 379.036 140.182Z" fill="#232323"/>
<path fill-rule="evenodd" clip-rule="evenodd" d="M232.776 257.921C233.313 258.17 234.895 259.455 235.562 258.875C234.621 257.967 233.679 257.059 232.738 256.151C232.218 256.697 231.862 257.496 232.776 257.921Z" fill="#232323"/>
<path fill-rule="evenodd" clip-rule="evenodd" d="M220.897 128.026C220.63 128.217 220.362 128.407 220.095 128.598C220.997 129.317 220.974 129.531 221.883 128.85C221.613 128.51 221.285 128.235 220.897 128.026Z" fill="#232323"/>
<path fill-rule="evenodd" clip-rule="evenodd" d="M391.265 297.46C390.76 296.591 389.805 298.193 389.16 298.454C388.11 298.877 387.248 296.634 387.549 299.323C385.175 298.282 383.734 300.67 382.203 301.914C380.04 303.672 377.394 304.625 375.952 307.121C382.743 308.643 390.205 303.036 395.269 299.353C396.095 298.751 400.226 295.717 397.426 295.424C396.281 295.304 392.114 298.921 391.265 297.46Z" fill="#232323"/>
<path fill-rule="evenodd" clip-rule="evenodd" d="M389.251 292.195C390.581 291.192 387.712 291.1 387.258 290.995C387.297 291.793 387.335 292.59 387.375 293.388C388.017 293.016 388.642 292.617 389.251 292.195Z" fill="#232323"/>
<path fill-rule="evenodd" clip-rule="evenodd" d="M384.253 295.542C384.651 295.304 385.76 294.562 385.005 294.008C384.324 294.424 383.837 295.102 383.73 295.875C383.904 295.764 384.079 295.653 384.253 295.542Z" fill="#232323"/>
<path fill-rule="evenodd" clip-rule="evenodd" d="M274.262 230.824C273.411 231.143 273.03 231.648 273.12 232.339C274.426 232.084 274.177 230.902 274.262 230.824Z" fill="#232323"/>
<path fill-rule="evenodd" clip-rule="evenodd" d="M570.728 23.191C581.31 30.3893 593.447 35.3067 604.505 41.7894C607.273 43.4121 615.896 46.7811 615.813 49.7909C615.764 51.5507 613.173 53.7574 612.038 54.977C610.094 57.0663 608.265 59.1774 606.471 61.3876C598.26 71.5088 590.528 81.7254 581.628 91.3382C580.288 92.7841 576.252 99.6882 574.949 96.2591C574.358 94.7044 574.845 92.9573 573.306 91.5079C572.513 90.7613 569.452 90.3498 570.344 88.7483C570.938 89.0043 571.533 89.2609 572.128 89.5162C571.666 88.2365 571.7 86.8344 571.007 85.6247C570.577 84.8731 569.736 84.5175 569.444 83.6712C569.041 82.5017 569.725 81.1428 569.611 79.9373C569.498 78.7354 568.847 77.5992 568.459 76.4651C566.156 69.7426 565.33 62.9657 564.151 56.0298C562.984 49.1666 561.168 42.5184 560.454 35.5789C559.701 28.2491 558.777 20.9341 557.545 13.663C559.744 13.9586 561.435 16.2472 562.99 17.5411C565.436 19.5745 568.09 21.3965 570.728 23.191ZM562.433 94.1536C561.928 93.7739 561.533 93.3073 561.248 92.7544C566.435 90.2939 563.305 94.4915 562.433 94.1536ZM559.279 88.906C557.018 89.5027 555.394 89.6236 553.651 88.7328C553.486 88.6487 553.676 87.9975 553.378 87.8638C553.117 87.7479 552.719 87.8914 552.496 87.7825C551.738 87.4127 550.409 88.223 550.279 86.8075C553.165 85.9619 556.002 84.4015 559.048 84.1385C563.281 83.7737 563.086 87.9006 559.279 88.906ZM549.374 80.7469C546.29 81.4376 543.749 83.0511 540.471 82.6297C537.395 82.2352 534.722 80.7073 532.295 78.9468C538.366 77.3008 544.732 77.0038 550.798 75.4116C552.773 74.8934 555.368 73.5267 557.496 74.0774C559.861 74.6897 560.01 76.8108 560.719 78.741C556.934 79.3929 553.121 79.9083 549.374 80.7469ZM530.082 72.5566C527.119 73.2347 524.09 74.7173 521.612 72.1586C521.212 71.7456 520.862 72.1579 520.909 70.8859C520.959 69.5447 522.23 68.6807 523.323 68.2084C525.894 67.0983 529.498 67.816 532.228 67.6526C536.583 67.3932 541.015 66.5263 545.323 65.8589C548.306 65.3972 551.387 64.372 554.435 64.5742C556.789 64.7305 559.628 66.6515 556.198 68.0528C553.075 69.3297 548.391 69.1339 545.007 69.6868C540.004 70.5041 535.019 71.4268 530.082 72.5566ZM527.187 59.205C527.379 59.3924 527.571 59.5798 527.763 59.7671C527.732 59.76 528.9 58.8543 529.209 58.8282C530.711 58.703 532.223 58.802 533.727 58.7207C537.194 58.5334 540.688 57.955 544.093 57.318C546.867 56.799 549.692 55.9046 552.547 56.1287C555.019 56.3225 555.279 56.8075 555.441 59.0919C549.131 59.0919 542.632 58.9646 536.431 60.2437C532.395 61.0758 527.946 63.5547 525.924 59.0863C526.345 59.1259 526.766 59.1654 527.187 59.205ZM531.132 49.5336C532.696 50.6747 536.962 48.777 538.837 48.5875C540.873 48.3811 542.789 48.1669 544.762 47.6811C546.512 47.2498 552.301 45.0962 553.643 47.1558C555.701 50.3113 547.369 50.8903 546.048 51.0466C540.509 51.702 534.762 52.2832 529.371 53.6746C529.958 52.2945 530.545 50.9144 531.132 49.5336ZM538.731 38.8157C539.135 40.2743 551.662 34.8994 551.89 38.8058C552.066 41.8029 539.496 43.2961 537.236 43.0331C537.766 41.653 539.173 40.4171 538.731 38.8157ZM542.936 29.6476C543.203 26.7056 543.615 26.7226 546.079 26.4454C547.957 26.234 550.54 25.1792 550.051 28.3863C549.633 31.1324 542.668 32.6164 542.936 29.6476ZM547.414 19.525C548.007 17.9455 549.341 20.0716 549.369 20.8747C549.444 23.0121 547.752 22.5497 546.123 22.5497C546.576 21.5514 547.007 20.5417 547.414 19.525ZM568.032 7.66882C567.7 7.28561 565.835 7.13925 565.304 6.9533C563.999 6.49514 564.184 5.51873 562.514 6.48171C562.431 6.40111 562.59 5.67711 562.499 5.64388C562.453 5.62691 561.283 5.2041 560.903 4.97078C559.985 4.40798 559.158 3.85721 558.315 3.15089C557.419 2.40073 556.521 1.3119 555.497 0.714459C555.065 0.462756 554.712 0.105704 554.192 0.0286375C552.841 -0.170745 553.228 0.730009 552.048 0.908888C551.32 1.01918 550.791 0.206098 549.84 0.556786C549.018 0.859395 548.542 1.96307 548.175 2.6199C546.844 5.01038 545.817 7.58326 544.514 9.99919C537.85 22.3531 530.276 34.2383 523.822 46.7076C520.713 52.7145 517.469 58.7631 515.28 65.1469C513.703 69.7511 510.14 76.4771 513.205 81.0778C515.434 84.4227 519.897 85.8672 523.458 87.4835C528.815 89.9157 533.754 93.0945 539.171 95.4524C545.63 98.2643 551.903 101.206 558.199 104.345C560.884 105.685 563.307 107.613 565.983 108.882C567.62 109.657 570.148 108.334 570.681 110.112C572.733 107.732 576.054 109.319 578.427 107.643C579.823 106.657 580.844 104.716 582.008 103.502C583.755 101.682 585.65 99.9937 587.433 98.2056C594.506 91.1034 601.038 83.7065 607.473 76.0783C613.62 68.7938 620.802 61.9115 625.994 53.9376C628.056 50.7723 628.429 47.4528 627.069 43.9558C626.075 41.4048 623.682 37.5529 620.263 39.242C621.559 37.1803 616.558 34.9786 615.041 34.5756C615.018 34.5699 614.719 36.1537 614.296 36.1141C614.446 36.1282 613.024 32.6051 612.4 32.1533C610.545 30.8092 608.289 29.2411 606.265 28.1345C604.409 27.12 602.451 26.6173 600.653 25.4818C598.474 24.1059 596.473 22.4741 594.285 21.1074C592.173 19.788 589.819 18.2283 587.484 17.3212C585.46 16.5343 583.642 16.3801 581.821 15.0905C579.568 13.4948 577.602 12.4123 575.004 11.3129C572.756 10.3619 569.64 9.53114 568.032 7.66882Z" fill="#232323"/>
<path fill-rule="evenodd" clip-rule="evenodd" d="M124.569 267.017C124.982 266.087 125.394 265.157 125.807 264.228C126.318 265.849 126.462 266.655 124.569 267.017ZM125.119 271.311C124.223 271.465 124.576 268.774 124.576 268.306C126.123 269.144 124.842 270.15 125.119 271.311ZM123.723 263.55C124.486 263.118 125.249 262.687 126.013 262.255C124.95 264.141 125.367 262.963 125.805 264.222C125.003 264.443 124.224 264.186 123.723 263.55ZM119.198 278.293C116.337 288.236 107.248 296.078 97.648 300.14C92.1315 302.473 86.7081 303.057 80.7509 302.797C78.4534 302.696 75.7498 301.981 73.5386 302.114C71.8362 302.217 71.9129 302.288 70.5028 303.668C69.879 302.568 70.3308 301.796 69.0794 301.155C67.518 300.356 66.8698 301.286 66.0953 302.393C65.0816 301.387 64.6667 300.862 63.3533 300.264C63.3947 300.283 62.096 300.236 62.1492 300.251C61.9144 300.182 60.5021 299.312 60.0598 299.154C58.2452 298.502 56.147 298.234 54.4725 297.299C53.0078 296.482 51.8014 294.189 50.1255 295.951C50.1241 293.007 45.983 291.786 44.0421 290.244C41.0092 287.834 38.598 284.267 37.086 280.816C35.4736 277.136 34.9354 273.608 34.1809 269.815C33.6537 267.165 30.2015 263.334 32.2746 260.66C32.7685 261.782 32.5367 262.93 33.3569 263.947C34.0952 262.584 34.5013 261.06 34.835 259.569C34.9989 258.838 35.9483 256.695 35.8405 256.058C35.6213 254.756 33.938 254.685 34.8712 253.089C36.8069 255.106 38.3691 251.564 36.9066 250.152C36.1846 250.932 35.9195 251.818 35.5866 252.783C33.6833 249.104 38.9509 250.289 37.7984 246.967C39.7209 246.613 40.8261 246.149 41.557 244.33C42.3699 242.306 41.7719 241.865 43.6176 240.527C44.2525 240.067 46.048 239.406 46.3765 238.65C47.0122 237.188 45.3946 236.755 46.8114 235.386C47.2898 236.189 49.1547 237.781 50.1757 236.266C50.3802 235.965 49.5216 235.75 50.1462 235.055C51.0713 234.025 52.1063 233.016 53.6708 233.232C52.4319 230.266 60.3478 230.031 62.3751 229.331C64.4068 228.631 66.1307 228.17 68.285 228.008C70.4371 227.845 70.5442 227.241 72.3663 226C72.5206 227.776 72.9665 227.385 74.2843 227.699C74.601 227.178 74.9259 227.12 75.2581 227.523C75.5889 227.825 75.9934 227.966 76.4704 227.949C77.1939 227.985 78.0148 227.895 78.7731 227.909C80.5531 227.943 82.3892 227.801 84.1352 227.837C84.5856 227.764 85.0064 227.615 85.4006 227.386C85.5652 227.683 85.7306 227.981 85.8945 228.278C86.8196 228.389 86.8912 229.5 88.0289 228.286C88.3655 229.829 89.3327 229.026 90.3545 229.444C91.2862 229.827 91.4346 230.438 92.2947 230.864C92.8602 231.303 93.4663 231.361 94.1145 231.039C94.731 231.477 95.3571 231.902 95.992 232.314C97.1622 232.947 98.5413 233.334 99.7742 233.834C100.594 234.158 101.41 234.495 102.218 234.845C102.242 235.779 102.68 236.11 103.531 235.835C104.299 236.45 104.515 236.426 105.261 237.475C106.95 239.851 108.449 241.697 110.583 243.821C119.856 253.055 122.705 266.11 119.198 278.293ZM122.044 239.029C117.858 233.66 111.931 227.511 106.606 224.12C103.907 222.401 100.118 219.315 96.8174 218.405C96.0348 218.19 95.2249 218.176 94.4556 217.949C93.8613 217.775 93.538 217.191 92.8602 217.085C92.3862 217.012 92.3338 218.028 91.8303 217.935C90.7775 217.738 90.1101 216.738 89.3667 216.112C87.7698 218.747 86.903 214.315 84.5582 217.295C81.7675 213.104 75.2116 214.02 70.7553 214.232C69.4338 214.294 68.8129 214.744 67.6413 215.078C66.5508 215.389 66.443 215.309 65.2522 215.3C62.2865 215.278 59.6538 215.635 56.9126 216.883C52.3072 218.977 48.0798 222.242 43.7054 224.767C38.8165 227.588 34.4097 231.18 30.6696 235.307C17.1487 250.23 13.5334 272.011 24.3145 289.311C41.4389 316.787 85.611 319.723 110.641 301.08C129.979 286.676 137.338 258.638 122.044 239.029Z" fill="#232323"/>
<path fill-rule="evenodd" clip-rule="evenodd" d="M338.895 24.1C336.885 23.3958 334.398 22.0206 332.163 22.4893C329.788 22.9871 328.832 25.2652 327.105 26.6347C322.41 30.3586 319.676 24.8084 317.096 21.7668C314.66 18.8948 311.687 18.1977 308.25 19.9624C306.881 20.6659 301.111 23.8893 302.117 25.9545C302.841 27.4407 305.691 26.1065 306.663 25.782C308.774 25.0785 310.734 24.4627 312.893 25.4886C316.943 27.4117 317.993 32.6854 322.892 33.5077C327.958 34.3583 328.125 29.7414 331.74 28.0035C334.164 26.839 335.852 28.9007 338.19 28.4899C340.418 28.0989 341.449 24.9936 338.895 24.1Z" fill="#232323"/>
<path fill-rule="evenodd" clip-rule="evenodd" d="M309.19 10.6246C310.982 10.9972 312.151 7.66924 313.273 6.82504C315.133 5.42583 318.359 5.14373 320.253 6.55214C323.953 9.30107 322.677 15.2359 327.945 16.7829C332.653 18.1658 334.871 12.2275 338.834 10.7491C341.138 9.88932 343.668 9.32652 342.768 6.24175C342.147 4.10863 340.318 3.56069 338.329 4.38014C334.911 5.78713 333.75 11.519 329.698 11.6215C325.505 11.7276 325.05 5.93913 323.25 3.41786C320.506 -0.424847 314.865 -1.35317 311.659 2.32126C310.692 3.42989 305.778 9.91689 309.19 10.6246Z" fill="#232323"/>
</svg>
