<svg width="643" height="540" viewBox="0 0 643 540" fill="none" xmlns="http://www.w3.org/2000/svg">
<path d="M242.147 344.669L9.76404 441.333V513.098L264.116 375.914L242.147 344.669Z" fill="#5DD07D"/>
<path d="M204.34 429.422L69.0534 501.293L90.3601 536.956L217.613 449.234L204.34 429.422Z" fill="#5DD07D"/>
<ellipse cx="293.896" cy="242.147" rx="220.666" ry="211.879" fill="#CCFBB6"/>
<path fill-rule="evenodd" clip-rule="evenodd" d="M361.063 232.006C366.777 235.973 365.867 243.779 364.147 249.45C361.614 257.801 356.569 265.531 350.813 272.195C340.602 284.016 323.268 297.29 307.29 286.912C293.061 277.669 284.085 259.019 280.987 243.31C280.03 238.456 278.754 231.222 283.254 227.572C289.905 222.178 301.637 223.159 309.666 223.854C314.954 224.311 320.056 225.863 325.282 225.134C337.423 223.44 350.936 224.975 361.063 232.006Z" fill="#FFE70C"/>
<path fill-rule="evenodd" clip-rule="evenodd" d="M114.897 293.866C126.473 307.929 146.153 310.151 163.632 310.013C174.129 309.93 184.645 309.173 194.935 307.124C200.482 306.02 205.993 304.557 211.353 302.799C214.894 301.638 220.164 301.058 221.671 297.425C225.646 287.838 222.721 275.817 221.085 266.087C220.252 261.138 219.627 256.16 218.817 251.207C218.3 248.038 218.052 244.532 216.665 241.567C215.041 238.094 212.99 238.788 209.556 239.747C204.825 241.07 199.967 241.62 195.102 242.331C183.23 244.067 172.872 247.568 162.083 252.53C151.414 257.436 141.065 262.279 131.549 269.101C126.728 272.559 122.573 276.311 118.703 280.717C115.713 284.121 111.25 289.436 114.897 293.866ZM165.498 356.327C165.591 357.842 183.733 353.271 186.12 352.758C201.785 349.393 217.761 345.561 232.549 339.481C246.353 333.807 258.515 327.314 269.378 317.233C274.441 312.533 278.995 307.585 283.353 302.314C285.537 299.673 288.521 299.979 290.956 297.745C293.147 295.733 294.828 294.163 294.143 291.156C288.668 292.537 278.56 301.22 272.885 296.836C269.65 294.336 274.137 291.725 276.208 290.277C280.101 287.554 283.43 284.194 286.525 280.668C281.211 281.654 276.265 283.56 271.64 286.213C269.585 287.392 262.543 291.666 260.903 287.592C259.894 285.083 264.67 281.932 266.159 280.544C269.815 277.137 273.762 273.16 275.702 268.579C270.903 267.513 266.38 271.065 263.111 273.959C259.484 277.17 255.037 280.542 251.994 284.243C250.425 286.152 250.084 288.407 248.858 290.466C247.478 292.782 245.272 294.768 243.163 296.482C239.1 299.785 234.348 302.217 229.47 304.228C218.323 308.824 206.376 312.077 194.495 314.358C188.666 315.478 182.981 315.994 177.065 316.184C172.467 316.331 170.432 317.648 168.677 321.705C163.926 332.683 164.789 344.76 165.498 356.327ZM301.936 272.68C304.594 275.062 308.048 276.556 310.827 278.846C313.272 280.861 316.092 283.011 318.821 284.641C321.734 286.38 323.911 285.161 326.534 283.587C329.613 281.74 333.153 280.992 336.325 279.34C347.291 273.624 360.706 259.619 358.659 246.76C357.791 241.31 354.849 235.947 349.506 233.474C344.653 231.229 337.6 229.982 332.408 231.859C329.48 232.918 327.385 235.256 325.509 237.554C323.321 240.234 322.483 239.811 320.255 237.227C316.268 232.605 309.693 228.549 303.194 228.647C299.964 228.696 296.755 229.348 293.845 230.632C293.451 230.806 293.231 231.333 292.835 231.512C292.35 231.731 291.551 231.275 291.213 231.48C290.361 231.996 289.511 233.61 289.019 234.428C287.047 237.714 283.497 244.157 287.075 246.923C287.077 246.924 286.916 250.665 286.965 251.092C287.217 253.324 288.023 255.167 289.061 257.208C292.178 263.34 296.78 268.062 301.936 272.68ZM296.635 324.564C299.153 325.314 301.866 317.756 299.45 316.55C297.147 315.399 294.355 323.886 296.635 324.564ZM336.187 315.528C337.059 318.383 337.428 321.622 339.56 323.946C341.513 321.727 341.706 317.632 339.812 315.351C338.731 314.05 335.233 312.408 336.187 315.528ZM255.601 265.507C255.615 265.579 252.571 266.973 254.056 268.498C256.086 270.581 255.807 266.527 255.601 265.507ZM243.021 242.239C243.056 245.126 249.437 244.429 249.391 241.526C249.336 237.953 242.984 239.179 243.021 242.239ZM250.638 218.114C250.006 215.471 238.907 211.795 239.209 216.401C239.361 218.71 251.977 223.733 250.638 218.114ZM364.422 307.742C365.666 309.174 367.433 309.739 368.924 310.839C370.489 311.991 371.606 313.486 372.972 314.839C376.723 318.553 381.239 321.605 385.285 325.016C392.725 331.288 399.852 338.031 408.101 343.35C422.842 352.854 439.935 358.053 456.905 362.605C458.311 362.982 462.36 364.504 463.751 363.37C465.251 362.148 464.488 357.845 464.419 356.219C464.138 349.549 463.326 342.801 463.414 336.142C463.45 333.406 464.287 329.518 462.796 327.015C461.132 324.22 456.487 323.402 453.613 322.35C444.878 319.153 436.464 313.76 428.748 308.765C419.263 302.624 409.684 296.381 399.923 290.649C390.36 285.033 379.811 281.272 369.144 278.065C368.65 279.059 373.74 282.259 374.322 282.708C377.112 284.86 380.148 287.09 382.22 289.93C383.687 291.941 385.191 296.491 381.141 296.607C379.178 296.664 376.276 294.846 374.496 294.257C371.556 293.286 368.526 292.604 365.451 292.16C368.095 294.948 377.056 299.956 375.426 304.592C373.844 309.092 364.693 303.841 361.543 303.841C362.06 305.41 363.357 306.517 364.422 307.742ZM472.529 320.299C478.389 322.273 484.396 323.396 490.444 324.669C496.209 325.884 501.538 326.8 507.443 326.088C515.596 325.107 524.618 321.873 525.651 313.001C526.877 302.489 519.125 292.83 512.469 285.289C504.368 276.113 495.272 267.91 485.413 260.483C475.566 253.062 464.937 246.52 453.802 240.997C445.33 236.796 435.763 234.245 426.806 231.092C425.102 230.492 420.388 228.384 418.794 230.131C417.506 231.544 419.259 233.897 419.846 235.209C420.992 237.766 421.149 240.34 421.445 243.085C422.766 255.345 424.355 267.602 425.087 279.915C425.291 283.347 425.649 286.937 425.44 290.37C425.325 292.272 424.291 294.695 424.979 296.552C426.303 300.122 432.361 302.484 435.572 304.079C441.321 306.933 447.408 309.063 453.215 311.794C459.593 314.792 465.803 318.033 472.529 320.299ZM391.255 240.635C389.646 240.424 387.236 240.005 385.802 241.002C383.932 242.304 384.423 244.115 386.15 245.059C387.514 245.805 390.706 246.009 392.054 245.332C394.35 244.179 393.961 240.992 391.255 240.635ZM382.346 269.025C383.646 271.099 388.396 272.458 387.983 268.589C387.628 265.276 379.952 265.207 382.346 269.025ZM384.109 210.617C382.02 211.392 378.228 212.056 377.608 214.63C377.031 217.026 379.402 216.867 381.113 216.208C382.52 215.667 388.789 210.575 384.109 210.617ZM56.7104 302.016C57.9308 297.467 57.0013 292.432 57.6748 287.773C58.3282 283.257 59.5039 279.107 61.1909 274.851C64.9265 265.429 69.2061 256.948 75.2612 248.679C86.6653 233.107 99.8962 219.391 115.873 208.016C131.646 196.788 149.112 187.663 167.613 181.267C187.233 174.485 206.982 172.124 227.671 170.824C233.85 170.437 240.023 169.976 246.166 169.229C250.657 168.683 256.285 168.01 260.725 169.327C263.514 170.155 265.072 172.484 262.034 174.013C259.879 175.097 257.059 175.226 254.68 175.514C257.554 184.258 262.23 193.032 269.641 199.053C276.876 204.931 286.557 206.946 295.688 208.437C300.639 209.245 306.183 209.87 311.211 209.521C314.39 209.302 316.871 207.892 318.154 211.028C319.044 213.206 319.465 215.597 320.638 212.307C322.026 208.418 322.707 208.443 327.025 207.339C335.854 205.08 345.976 203.019 353.678 198.134C361.67 193.065 364.449 184.866 368.91 177.232C370.014 175.345 373.342 171.525 371.641 169.363C370.086 167.386 365.029 167.583 362.713 167.377C360.269 167.159 357.811 167.15 355.359 167.059C353.938 167.006 351.081 167.564 351.652 165.532C352.514 162.469 361.752 162.862 364.047 162.812C368.313 162.72 372.638 162.815 376.882 163.264C397.929 165.493 419.165 169.615 439.531 175.111C479.045 185.774 517.315 205.423 546.153 233.73C573.833 260.902 582.603 306.118 565.586 340.812C556.742 358.842 537.55 366.249 518.946 372.232C509.133 375.387 498.741 377.855 488.31 377.259C483.304 376.973 478.554 375.682 473.672 374.71C471.543 374.286 469.12 373.609 466.933 373.78C465.277 373.909 463.687 375.365 462.134 374.591C461.032 374.042 460.553 372.467 459.206 371.796C457.589 370.99 455.628 370.7 453.881 370.293C449.027 369.164 444.326 367.333 439.58 365.831C434.673 364.278 430.043 362.278 425.334 360.256C422.957 359.234 417.455 355.082 415.906 358.118C415.2 359.503 415.501 362.175 415.329 363.628C415.027 366.17 414.673 368.705 414.286 371.236C413.433 376.807 412.412 382.355 411.366 387.896C409.477 397.894 407.044 407.465 402.975 416.87C399.726 424.379 396.874 432.891 390.841 438.864C388.207 441.472 384.614 442.645 380.837 441.826C376.54 440.893 374.401 437.156 371.793 434.134C366.054 427.484 356.58 422.388 347.831 420.554C337.117 418.308 326.681 421.593 316.455 424.386C305.638 427.339 294.627 430.154 284.009 433.704C274.116 437.014 263.433 441.901 252.703 441.475C243.346 441.105 234.606 433.812 227.858 428.253C221.08 422.669 212.606 414.494 202.861 415.152C198.022 415.479 193.612 417.714 188.898 418.623C183.724 419.621 178.218 419.762 172.956 420.134C166.424 420.596 151.81 418.965 149.394 411.439C149.035 410.323 149.033 408.024 150.573 407.577C151.989 407.167 152.712 408.752 154.054 408.68C156.783 408.533 158.916 403.975 160.415 402.21C166.467 395.087 174.768 389.774 181.558 383.339C189.226 376.074 195.772 367.271 201.55 358.589C198.938 357.938 196.12 359.018 193.592 359.531C190.52 360.154 187.527 360.907 184.5 361.705C181.164 362.585 177.78 363.19 174.394 363.86C171.868 364.36 168.515 364.51 166.235 365.724C164.244 366.783 163.133 367.921 160.662 368.229C158.149 368.541 155.569 368.278 153.044 368.261C146.216 368.217 139.401 368.096 132.605 367.404C108.591 364.961 83.135 355.234 68.6949 335.928C64.7672 330.677 61.6031 324.86 59.6036 318.687C58.0432 313.868 55.3523 307.076 56.7104 302.016Z" fill="#232323"/>
<path fill-rule="evenodd" clip-rule="evenodd" d="M281.947 79.5841C275.637 79.6697 269.721 81.4618 263.841 83.4992C258.67 85.2907 253.157 86.9481 248.975 90.5239C241.454 96.9562 239.495 107.607 238.264 116.719C236.729 128.089 241.838 137.629 246.138 147.916C250.159 157.537 257.541 165.331 266.314 171.27C270.911 174.381 275.991 176.258 281.306 177.905C286.705 179.577 291.933 181.817 297.709 181.809C306.482 181.797 317.712 177.807 321.448 169.53C323.149 165.762 321.493 165.085 318.089 167.133C313.15 170.105 308.389 173.311 302.618 174.629C291.426 177.186 278.021 173.225 268.207 167.998C258.397 162.773 251.81 154.923 247.409 145.149C242.968 135.288 241.242 125.572 242.955 114.941C244.406 105.933 247.294 97.704 255.77 92.8137C274.07 82.2581 298.725 83.1086 314.999 96.8265C317.231 98.7071 319.437 100.537 321.737 102.333C323.199 103.474 324.921 104.844 324.708 106.817C324.527 108.508 320.763 115.025 325.295 113.023C328.969 111.4 330.965 108.227 335.415 107.834C340.151 107.416 345.801 110.9 347.218 115.286C348.569 119.47 346.16 125.195 342.385 127.596C340.047 129.082 337.475 128.853 334.821 128.793C333.504 128.763 329.836 128.353 328.964 129.687C327.422 132.046 332.864 134.525 334.62 135.047C338.894 136.316 343.945 134.822 346.401 131.169C348.899 127.455 350.608 123.156 350.952 118.731C351.281 114.492 350.276 110.199 347.665 106.718C344.887 103.016 339.225 98.866 334.148 100.152C331.945 100.71 330.175 102.89 328.013 103.304C326.648 103.565 327.222 103.752 326.092 102.783C325.374 102.169 324.696 101.035 324.033 100.306C320.223 96.1172 316.456 91.6467 311.794 88.2941C303.433 82.2824 292.32 79.443 281.947 79.5841ZM305.068 162.633C304.079 160.413 302.262 164.373 301.725 165.035C300.662 166.345 298.162 167.364 298.27 169.296C298.448 172.486 302.988 171.894 304.501 170.23C306.224 168.336 306.044 164.825 305.068 162.633ZM272.817 147.532C270.367 151.187 273.352 155.132 275.288 158.367C277.14 161.46 278.859 164.956 281.014 167.864C284.592 172.692 292.376 167.469 292.607 162.507C292.784 158.709 289.975 160.362 288.171 161.781C286.315 163.242 285.436 163.606 283.49 162.01C279.576 158.798 277.818 153.428 275.112 149.362C274.575 148.556 273.603 148.071 272.817 147.532ZM265.835 148.707C265.204 150.474 266.529 155.158 262.846 154.69C260.811 154.431 260.376 151.635 259.306 150.414C255.709 146.311 256.812 154.071 257.752 156.014C259.824 160.294 265.624 163.244 268.5 157.813C269.57 155.793 269.565 153.243 269.022 151.072C268.726 149.889 267.001 145.443 265.835 148.707ZM298.677 140.336C299.003 142.398 301.027 146.507 298.556 147.982C296.381 149.281 292.594 146.461 290.92 145.283C289.18 144.06 285.237 140.549 285.082 144.918C285.003 147.144 287.331 149.816 288.991 151.099C292.535 153.835 299.898 156.288 302.509 151.139C303.931 148.334 303.153 144.341 302.213 141.514C301.451 139.223 297.889 135.355 298.677 140.336ZM252.202 129.045C250.76 130.649 247.342 134.241 249.2 136.525C251.373 139.195 254.903 134.297 256.295 132.934C257.549 131.706 260.187 128.209 259.062 126.354C257.2 123.285 253.468 127.637 252.202 129.045ZM274.867 122.14C270.153 125.08 276.35 127.198 279.035 127.461C282.285 127.778 286.439 127.989 289.423 126.462C293.654 124.298 292.244 121.028 288.143 120.246C283.939 119.444 278.525 119.857 274.867 122.14ZM336.143 112.778C332.677 113.424 328.718 114.265 327.537 117.884C326.318 121.624 328.07 122.865 331.61 122.023C334.886 121.244 339.779 120.46 341.631 117.395C343.844 113.734 339.357 112.18 336.143 112.778Z" fill="#232323"/>
<path fill-rule="evenodd" clip-rule="evenodd" d="M526.867 193.144C528.03 196.742 533.917 199.128 536.853 201.314C547.123 208.965 557.158 216.931 566.442 225.663C571.26 230.196 574.908 235.678 579.087 240.719C580.106 241.949 581.912 244.704 583.912 244.445C586.106 244.162 586.55 240.544 586.48 238.963C586.24 233.574 581.1 228.369 577.435 224.658C573.312 220.486 568.904 216.419 564.403 212.62C559.446 208.437 554.068 204.842 548.587 201.322C543.204 197.865 538.044 193.872 532.447 190.741C529.81 189.267 525.432 188.705 526.867 193.144ZM167.894 158.979C163.608 159.108 159.425 160.455 155.383 161.705C146.49 164.455 138.021 168.27 129.669 172.257C115.028 179.246 100.937 187.702 88.0217 197.317C85.3217 199.327 82.5538 200.955 79.618 202.598C77.7389 203.651 75.0598 204.935 74.3359 207.08C72.4971 212.533 81.7784 207.06 83.0956 206.277L84.9483 205.177C112.429 188.866 139.877 173.019 170.962 163.665C172.618 163.166 173.133 161.752 172.264 160.35C171.322 158.83 169.487 158.931 167.894 158.979ZM528.117 170.392C528.316 172.052 530.28 172.43 531.604 172.963C536.546 174.951 541.611 176.646 546.54 178.667C555.687 182.418 564.087 187.861 573.635 190.707C575.817 191.359 576.139 189.25 575.555 187.815C574.904 186.213 572.95 185.089 571.537 184.162C567.46 181.488 562.836 179.565 558.309 177.707C553.82 175.863 549.199 174.469 544.597 172.924C540.32 171.488 535.355 168.814 530.762 168.617L530.562 168.608C529.1 168.537 527.886 168.442 528.117 170.392ZM160.092 145.168C164.463 143.991 160.334 141.341 157.737 141.527C154.839 141.735 152.039 143.045 149.291 143.836C140.89 146.251 133.103 148.893 125.255 152.642C124.085 153.202 118.929 155.856 122.339 157.031C124.703 157.845 130.224 154.352 132.253 153.514C141.172 149.831 150.755 147.683 160.092 145.168Z" fill="#232323"/>
<path fill-rule="evenodd" clip-rule="evenodd" d="M334.305 153.744C333.759 152.209 327.002 135.431 329.647 134.925C332.448 134.388 336.192 144.123 337.005 145.882C340.006 152.378 341.783 159.348 343.175 166.316C344.145 171.167 344.997 176.137 344.657 181.097C344.396 184.909 342.752 185.486 340.043 187.822C340.043 176.244 338.206 164.703 334.305 153.744Z" fill="#232323"/>
<path fill-rule="evenodd" clip-rule="evenodd" d="M394.313 79.2737C401.512 72.7106 410.048 68.1883 419.227 73.1277C427.57 77.6167 430.537 88.1355 429.164 97.3086C427.68 107.23 421.687 116.578 412.204 120.49C402.221 124.608 392.072 119.657 388.472 109.928C384.453 99.072 388.465 88.9038 394.313 79.2737ZM387.033 81.5114C381.502 91.5978 381.408 104.723 387.505 114.062C393.79 123.689 405.475 127.875 416.479 123.02C438.72 113.209 439.674 78.6225 418.268 69.0195C412.833 66.5812 407.022 66.8397 401.301 68.8137C394.984 70.9924 390.906 76.2848 387.033 81.5114Z" fill="#232323"/>
<path fill-rule="evenodd" clip-rule="evenodd" d="M480.447 70.5733C476.782 74.5816 472.941 78.4304 469.302 82.4502C465.855 86.2566 462.737 89.5713 458.143 91.9701C460.48 85.7555 462.904 79.588 465.416 73.4367C466.662 70.3859 467.865 67.3114 469.163 64.2817C470.167 61.9376 471.184 60.0003 469.674 57.6844C467.917 54.9885 466.439 57.734 465.904 59.7339C465.166 62.4919 463.965 65.2002 463.027 67.929C460.932 74.0195 458.688 80.0459 456.416 86.076C455.709 87.9504 450.684 98.1158 455.947 97.0298C458.2 96.5656 461.168 93.9922 463.304 92.9635C466.045 91.6436 468.25 89.6261 470.494 87.5567C475.169 83.2437 479.409 78.3116 484.006 73.8443C486.354 71.5631 488.702 69.2824 491.049 67.0018C492.424 65.665 492.836 65.0629 491.509 63.4551C490.545 62.2863 489.084 61.7816 487.735 61.2058C484.308 59.7418 480.836 58.3679 477.373 56.9876C476.053 56.46 470.824 53.3686 469.531 53.9973C466.596 55.4237 474.634 58.6325 475.583 59.0724C479.164 60.7305 482.815 62.2502 486.216 64.246C484.315 66.3795 482.412 68.5013 480.447 70.5733Z" fill="#232323"/>
<path fill-rule="evenodd" clip-rule="evenodd" d="M481.506 121.918C480.845 121.935 480.185 121.952 479.533 121.97C480.196 121.952 480.851 121.935 481.506 121.918Z" fill="#232323"/>
<path fill-rule="evenodd" clip-rule="evenodd" d="M495.257 119.229C496.305 119.353 497.353 119.477 498.399 119.601C497.351 119.477 496.304 119.353 495.257 119.229Z" fill="#232323"/>
<path fill-rule="evenodd" clip-rule="evenodd" d="M161.108 97.4277C161.222 98.0173 161.337 98.6069 161.451 99.1971C161.382 99.2123 155.871 89.0021 154.958 87.7691C151.862 83.5891 147.832 80.1111 143.948 76.62C135.719 69.2251 126.088 63.2563 118.025 55.7295C115.371 53.2532 110.618 49.5012 111.667 45.3143C112.71 41.1529 121.515 41.9985 124.53 43.2025C129.257 45.0906 133.096 49.0394 136.619 52.48C140.461 56.2335 144.334 59.9447 147.59 64.1924C151.102 68.7729 154.435 73.7337 156.586 79.0494C158.997 85.0043 159.938 91.167 161.108 97.4277ZM159.299 115.697C163.038 116.803 158.35 117.55 159.815 119.466C161.421 121.568 164.122 115.093 164.526 113.87C166.906 106.647 165.841 97.8723 164.541 90.5388C163.885 86.8392 163.461 83.0789 162.576 79.4194C161.712 75.851 159.831 72.46 158.094 69.214C154.615 62.7192 150.008 56.6684 144.78 51.3727C139.537 46.0598 133.692 40.7442 126.773 37.4733C121.056 34.772 111.993 36.6463 109.317 42.5467C106.583 48.5761 110.281 55.1441 114.655 59.3835C120.36 64.9125 126.576 70.4042 132.984 75.1717C136.277 77.6224 139.037 80.5861 142.237 83.1431C145.642 85.8652 148.588 88.6031 151.106 92.1231C153.545 95.5341 156.054 98.9424 157.639 102.815C159.375 107.055 159.299 111.211 159.299 115.697Z" fill="#232323"/>
<path fill-rule="evenodd" clip-rule="evenodd" d="M198.175 6.9707C195.829 8.99549 196.956 11.0845 197.724 13.6139C198.186 15.132 200.724 20.1163 200.024 21.5363C199.214 23.1779 195.412 23.5818 193.786 24.1002C190.954 25.0032 188.11 25.9103 185.43 27.1833C184.241 27.7487 179.952 29.0479 179.148 30.1028C178.687 30.7075 178.519 31.1811 178.866 31.9605C179.474 33.3288 180.341 32.6046 181.823 32.3112C188.596 30.9692 195.311 29.253 201.591 26.4226C203.343 30.3209 204.825 34.3022 206.307 38.302C206.741 39.4742 207.155 42.1376 208.804 42.3274C210.816 42.558 210.843 39.9747 210.709 38.5809C210.515 36.5458 209.415 34.376 208.751 32.4493C208.203 30.8587 206.282 27.5471 206.519 25.9083C206.681 24.7802 207.398 24.8589 208.676 24.4157C209.883 23.9974 211.09 23.5811 212.297 23.1579C214.231 22.4793 216.157 21.7986 218.039 20.9937C219.072 20.5519 221.234 20.0355 221.982 19.1187C222.416 18.5872 222.899 16.6714 222.352 16.1412C221.071 14.8993 212.555 18.242 210.803 18.6983C209.642 19.0014 208.474 19.2326 207.347 19.6296C206.92 19.7808 206.415 20.3938 205.953 20.4166C203.994 20.5118 203.839 19.0669 203.231 17.5171C201.82 13.9156 200.287 10.2416 198.175 6.9707Z" fill="#232323"/>
<path fill-rule="evenodd" clip-rule="evenodd" d="M303.708 46.712C312.167 34.372 320.626 22.0316 329.084 9.69164C332.734 14.4459 336.384 19.1995 340.035 23.9533C341.023 25.2396 342.719 26.7685 343.341 28.259C344.005 29.8502 344.422 29.3737 342.336 30.3982C339.668 31.7074 336.785 32.6917 334.041 33.8235C329.109 35.8577 324.236 38.6145 319.173 40.2304C316.589 41.0548 314.414 42.3207 311.938 43.3924C309.22 44.5696 306.365 45.3812 303.708 46.712ZM349.163 31.7894C345.589 26.0968 341.403 20.895 337.301 15.5698C333.611 10.7788 330.371 6.03762 325.586 2.2699C325.738 6.11091 321.959 10.0577 320.094 13.2544C317.524 17.6593 314.374 21.6925 311.602 25.9757C308.879 30.1826 306.464 34.566 303.734 38.7715C302.35 40.9041 300.898 42.9947 299.522 45.132C298.661 46.4701 296.344 49.2078 296.252 50.746C295.971 55.4158 304.055 50.7738 305.756 50.1018C310.859 48.0885 315.78 45.6689 320.889 43.685C325.653 41.8362 330.388 39.9235 335.119 37.9886C339.802 36.0737 344.868 34.4865 349.163 31.7894Z" fill="#232323"/>
</svg>
