<svg width="92" height="33" viewBox="0 0 92 33" fill="none" xmlns="http://www.w3.org/2000/svg">
<path d="M7.776 24.216C6.512 24.216 5.336 24.072 4.248 23.784C3.16 23.48 2.272 23.056 1.584 22.512C1.344 22.336 1.168 22.152 1.056 21.96C0.96 21.752 0.912 21.496 0.912 21.192C0.912 20.792 1.032 20.44 1.272 20.136C1.528 19.832 1.816 19.68 2.136 19.68C2.312 19.68 2.48 19.712 2.64 19.776C2.816 19.824 3.024 19.92 3.264 20.064C3.952 20.496 4.648 20.816 5.352 21.024C6.056 21.216 6.832 21.312 7.68 21.312C8.736 21.312 9.544 21.136 10.104 20.784C10.664 20.432 10.944 19.928 10.944 19.272C10.944 18.776 10.68 18.376 10.152 18.072C9.64 17.768 8.72 17.48 7.392 17.208C5.904 16.904 4.712 16.536 3.816 16.104C2.936 15.672 2.288 15.136 1.872 14.496C1.472 13.856 1.272 13.08 1.272 12.168C1.272 11.16 1.56 10.256 2.136 9.456C2.728 8.64 3.536 8.008 4.56 7.56C5.6 7.096 6.768 6.864 8.064 6.864C10.336 6.864 12.208 7.432 13.68 8.568C13.92 8.76 14.088 8.96 14.184 9.168C14.296 9.36 14.352 9.6 14.352 9.888C14.352 10.288 14.224 10.64 13.968 10.944C13.728 11.248 13.448 11.4 13.128 11.4C12.952 11.4 12.784 11.376 12.624 11.328C12.48 11.28 12.272 11.176 12 11.016C11.344 10.6 10.736 10.288 10.176 10.08C9.632 9.872 8.936 9.768 8.088 9.768C7.112 9.768 6.344 9.96 5.784 10.344C5.224 10.712 4.944 11.224 4.944 11.88C4.944 12.264 5.048 12.584 5.256 12.84C5.48 13.08 5.84 13.296 6.336 13.488C6.848 13.68 7.568 13.88 8.496 14.088C10.672 14.568 12.232 15.184 13.176 15.936C14.136 16.688 14.616 17.72 14.616 19.032C14.616 20.056 14.328 20.96 13.752 21.744C13.192 22.528 12.392 23.136 11.352 23.568C10.328 24 9.136 24.216 7.776 24.216ZM19.1848 24.144C18.6088 24.144 18.1528 23.976 17.8168 23.64C17.4808 23.304 17.3128 22.848 17.3128 22.272V8.808C17.3128 8.248 17.4808 7.8 17.8168 7.464C18.1528 7.128 18.6088 6.96 19.1848 6.96C19.7608 6.96 20.2168 7.128 20.5528 7.464C20.8888 7.8 21.0568 8.248 21.0568 8.808V22.272C21.0568 22.848 20.8888 23.304 20.5528 23.64C20.2168 23.976 19.7608 24.144 19.1848 24.144ZM37.3264 6.96C37.8544 6.96 38.2784 7.136 38.5984 7.488C38.9344 7.824 39.1024 8.264 39.1024 8.808V22.272C39.1024 22.832 38.9344 23.288 38.5984 23.64C38.2784 23.976 37.8544 24.144 37.3264 24.144C36.7504 24.144 36.2864 23.936 35.9344 23.52L27.8944 13.224V22.272C27.8944 22.832 27.7344 23.288 27.4144 23.64C27.1104 23.976 26.6944 24.144 26.1664 24.144C25.6384 24.144 25.2144 23.976 24.8944 23.64C24.5744 23.288 24.4144 22.832 24.4144 22.272V8.808C24.4144 8.264 24.5744 7.824 24.8944 7.488C25.2304 7.136 25.6624 6.96 26.1904 6.96C26.7824 6.96 27.2384 7.168 27.5584 7.584L35.5984 17.808V8.808C35.5984 8.264 35.7584 7.824 36.0784 7.488C36.3984 7.136 36.8144 6.96 37.3264 6.96ZM58.2293 21.72C58.3573 22.008 58.4213 22.264 58.4213 22.488C58.4213 22.936 58.2373 23.32 57.8693 23.64C57.5173 23.944 57.1093 24.096 56.6453 24.096C56.3413 24.096 56.0533 24.016 55.7812 23.856C55.5093 23.68 55.3013 23.424 55.1573 23.088L53.8853 20.256H45.7493L44.4773 23.088C44.3333 23.424 44.1253 23.68 43.8533 23.856C43.5973 24.016 43.3093 24.096 42.9893 24.096C42.5253 24.096 42.1093 23.944 41.7413 23.64C41.3733 23.32 41.1893 22.936 41.1893 22.488C41.1893 22.264 41.2533 22.008 41.3813 21.72L47.8613 8.112C48.0373 7.728 48.3013 7.44 48.6533 7.248C49.0053 7.04 49.3813 6.936 49.7813 6.936C50.1973 6.936 50.5813 7.04 50.9333 7.248C51.2853 7.456 51.5573 7.744 51.7493 8.112L58.2293 21.72ZM47.0213 17.424H52.6133L49.8293 11.184L47.0213 17.424ZM79.7732 8.088C79.9172 7.704 80.1332 7.416 80.4212 7.224C80.7252 7.016 81.0612 6.912 81.4292 6.912C81.8932 6.912 82.2852 7.056 82.6052 7.344C82.9412 7.632 83.1092 8.024 83.1092 8.52C83.1092 8.76 83.0612 9.024 82.9652 9.312L77.9732 22.968C77.8292 23.352 77.5732 23.656 77.2052 23.88C76.8532 24.088 76.4612 24.192 76.0292 24.192C75.5972 24.192 75.2052 24.088 74.8532 23.88C74.5012 23.656 74.2532 23.352 74.1092 22.968L70.5332 12.864L66.8612 22.968C66.7172 23.352 66.4692 23.656 66.1172 23.88C65.7652 24.088 65.3732 24.192 64.9412 24.192C64.5252 24.192 64.1332 24.088 63.7652 23.88C63.4132 23.656 63.1652 23.352 63.0212 22.968L58.0292 9.312C57.9332 9.04 57.8852 8.784 57.8852 8.544C57.8852 8.048 58.0612 7.656 58.4132 7.368C58.7652 7.064 59.1812 6.912 59.6612 6.912C60.0452 6.912 60.3892 7.016 60.6932 7.224C61.0132 7.416 61.2452 7.704 61.3892 8.088L65.0852 18.72L68.9252 8.136C69.0692 7.752 69.2932 7.456 69.5972 7.248C69.9172 7.04 70.2532 6.936 70.6052 6.936C70.9732 6.936 71.3092 7.04 71.6132 7.248C71.9172 7.456 72.1412 7.76 72.2852 8.16L75.9572 18.912L79.7732 8.088Z" fill="black"/>
<circle cx="89" cy="21" r="3" fill="#079911"/>
</svg>
